<?xml version="1.0" encoding="UTF-8"?><svg version="1.1" xmlns="http://www.w3.org/2000/svg" xmlns:xlink="http://www.w3.org/1999/xlink" viewBox="0 0 1500 1500" width="1500" height="1500" x="0px" y="0px">
              
              <!-- ITEM 0 -->
<g transform="translate(1142.0 762.0) rotate(0.0 131.0 272.5) scale(0.7405313736574336 0.7401874236045091)">
<g transform="translate(-0.0 -0.0)">
<g clip-path="url(#clipPathId-collage-item-0)">
		<defs>
			<clipPath id="clipPathId-collage-item-0">
				<rect x="0.0" y="0.0" width="353.8" height="736.3"/>
			</clipPath>
		</defs>


<g>
	<g>
		<rect x="171.9" y="173.1" width="10" height="563.2" style="fill:#383A48;"/>
	</g>
	<g>
		<g>
			<path d="M229.9,95.3c0,49.9-52.9,90.4-52.9,90.4s-52.9-40.5-52.9-90.4S177,5,177,5S229.9,45.4,229.9,95.3z" style="fill:#7FD6C2;"/>
		</g>
		<g>
			<path d="M176.9,190.9c-1.1,0-2.1-0.3-3-1c-0.6-0.4-13.9-10.7-27.3-27.3c-18-22.3-27.6-45.5-27.6-67.1     s9.5-44.8,27.6-67.1C160.1,11.7,173.4,1.5,173.9,1c1.8-1.4,4.3-1.4,6.1,0c0.6,0.4,13.9,10.7,27.3,27.3     c18,22.3,27.6,45.5,27.6,67.1s-9.5,44.8-27.6,67.1c-13.5,16.6-26.8,26.9-27.3,27.3C179.1,190.4,178,190.9,176.9,190.9z      M176.9,11.4c-11,9.4-47.9,43.9-47.9,84s37,74.6,47.9,84c11-9.4,47.9-43.9,47.9-84C224.9,55.2,187.9,20.7,176.9,11.4z" style="fill:#383A48;"/>
		</g>
	</g>
	<g>
		<g>
			<path d="M107.4,180.8c35.3,35.3,26.5,101.4,26.5,101.4s-66.1,8.8-101.4-26.5S6,154.2,6,154.2S72.1,145.4,107.4,180.8     z" style="fill:#7FD6C2;"/>
		</g>
		<g>
			<path d="M115.2,288.1c-23,0-61.4-4.2-86.2-29C-7.6,222.5,0.7,156.4,1.1,153.5c0.3-2.2,2.1-4,4.3-4.3     c2.8-0.4,68.9-8.7,105.6,27.9l0,0c36.6,36.6,28.3,102.8,27.9,105.6c-0.3,2.2-2.1,4-4.3,4.3C133.7,287.2,126.2,288.1,115.2,288.1z      M10.6,158.9c-1.1,14.4-2.9,64.9,25.5,93.3s78.9,26.6,93.3,25.5c1.1-14.4,2.9-64.9-25.5-93.3C75.5,155.9,25,157.6,10.6,158.9z" style="fill:#383A48;"/>
		</g>
	</g>
	<g>
		<line x1="134" y1="282.1" x2="176.9" y2="325.1" style="fill:none;"/>
		
			<rect x="150.4" y="273.3" transform="matrix(0.7071 -0.7071 0.7071 0.7071 -169.2213 198.793)" width="10" height="60.8" style="fill:#383A48;"/>
	</g>
	<g>
		<g>
			<path d="M119.4,350.6c35.3,35.3,26.5,101.4,26.5,101.4s-66.1,8.8-101.4-26.5S18,324.1,18,324.1     S84.1,315.2,119.4,350.6z" style="fill:#7FD6C2;"/>
		</g>
		<g>
			<path d="M127.2,457.9c-23,0-61.4-4.2-86.2-29C4.4,392.4,12.7,326.1,13.1,323.4c0.3-2.2,2.1-4,4.3-4.3     c2.8-0.4,68.9-8.7,105.6,27.9c36.6,36.6,28.3,102.8,27.9,105.6c-0.3,2.2-2.1,4-4.3,4.3C145.7,457.1,138.2,457.9,127.2,457.9z      M22.6,328.6c-1.1,14.4-2.9,64.9,25.5,93.3c28.4,28.4,78.9,26.6,93.3,25.5c1.1-14.4,2.9-64.9-25.5-93.3     C87.5,325.6,37,327.4,22.6,328.6z" style="fill:#383A48;"/>
		</g>
	</g>
	<g>
		<line x1="146" y1="451.9" x2="176.9" y2="482.9" style="fill:none;"/>
		
			<rect x="156.4" y="445.6" transform="matrix(0.7071 -0.7071 0.7071 0.7071 -283.2901 251.0186)" width="10" height="43.8" style="fill:#383A48;"/>
	</g>
	<g>
		<g>
			<path d="M234.4,350.6C199.1,385.9,207.9,452,207.9,452s66.1,8.8,101.4-26.5s26.5-101.4,26.5-101.4     S269.7,315.2,234.4,350.6z" style="fill:#7FD6C2;"/>
		</g>
		<g>
			<path d="M226.6,457.9c-11,0-18.5-1-19.4-1.1c-2.2-0.3-4-2.1-4.3-4.3c-0.4-2.8-8.7-68.9,27.9-105.6     c36.6-36.6,102.8-28.3,105.6-27.9c2.2,0.3,4,2.1,4.3,4.3c0.4,2.8,8.7,68.9-27.9,105.6C288,453.7,249.7,457.9,226.6,457.9z      M212.5,447.4c14.4,1.1,64.9,2.9,93.3-25.5c28.3-28.3,26.6-78.9,25.5-93.3c-14.4-1.1-64.9-2.9-93.3,25.5     C209.5,382.4,211.3,432.9,212.5,447.4z" style="fill:#383A48;"/>
		</g>
	</g>
	<g>
		<line x1="207.9" y1="451.9" x2="176.9" y2="482.9" style="fill:none;"/>
		
			<rect x="170.6" y="462.4" transform="matrix(0.7072 -0.7071 0.7071 0.7072 -274.1155 273.0241)" width="43.8" height="10" style="fill:#383A48;"/>
	</g>
	<g>
		<g>
			<path d="M246.4,180.8c-35.3,35.3-26.5,101.4-26.5,101.4s66.1,8.8,101.4-26.5s26.5-101.4,26.5-101.4     S281.7,145.4,246.4,180.8z" style="fill:#7FD6C2;"/>
		</g>
		<g>
			<path d="M238.6,288.1c-11,0-18.5-1-19.4-1.1c-2.2-0.3-4-2.1-4.3-4.3c-0.4-2.8-8.7-68.9,27.9-105.6l0,0     c36.6-36.6,102.8-28.3,105.6-27.9c2.2,0.3,4,2.1,4.3,4.3c0.4,2.8,8.7,68.9-27.9,105.6C300,283.9,261.7,288.1,238.6,288.1z      M224.5,277.5c14.4,1.1,64.9,2.9,93.3-25.5c28.3-28.3,26.6-78.9,25.5-93.3c-14.4-1.1-64.9-2.9-93.3,25.5l0,0     C221.6,212.6,223.3,263.1,224.5,277.5z" style="fill:#383A48;"/>
		</g>
	</g>
	<g>
		<line x1="219.9" y1="282.1" x2="176.9" y2="325.1" style="fill:none;"/>
		
			<rect x="168.1" y="298.6" transform="matrix(0.7072 -0.7071 0.7071 0.7072 -156.5302 229.2839)" width="60.8" height="10" style="fill:#383A48;"/>
	</g>
</g>

</g>
</g>
</g>

<!-- ITEM 1 -->
<g transform="translate(741.0 212.0) rotate(0.0 237.0 449.0) scale(1.2721417069243155 1.2710544939844304)">
<g transform="translate(-0.0 -0.0)">
<g clip-path="url(#clipPathId-collage-item-1)">
		<defs>
			<clipPath id="clipPathId-collage-item-1">
				<rect x="0.0" y="0.0" width="372.6" height="706.5"/>
			</clipPath>
		</defs>


<g>
	<g>
		<path d="M186.3,706.5c-2.8,0-5-2.2-5-5V148.7c0-2.8,2.2-5,5-5s5,2.2,5,5v552.7C191.3,704.2,189.1,706.5,186.3,706.5z" style="fill:#383A48;"/>
	</g>
	<g>
		<g>
			<g>
				
					<ellipse transform="matrix(0.8449 -0.5349 0.5349 0.8449 -200.3508 210.1667)" cx="262.3" cy="450.6" rx="83.7" ry="52" style="fill:#7FD6C2;"/>
			</g>
			<g>
				<path d="M231.3,518.4c-20.1,0-35.6-7.2-43.9-20.3c-8.4-13.3-8.1-30.7,0.8-49c8.5-17.6,24-34.1,43.7-46.6      s41.3-19.4,60.8-19.6c0.2,0,0.5,0,0.7,0c20.1,0,35.6,7.2,43.9,20.3c8.4,13.3,8.1,30.7-0.8,49c-8.5,17.6-24,34.1-43.7,46.6      s-41.3,19.4-60.8,19.6C231.8,518.4,231.5,518.4,231.3,518.4z M293.3,392.9c-0.2,0-0.4,0-0.6,0c-17.7,0.2-37.4,6.6-55.5,18      c-18.1,11.5-32.3,26.6-40,42.5c-7.3,15.1-7.8,29.1-1.3,39.3s19.2,15.8,36.1,15.6c17.7-0.2,37.4-6.6,55.5-18      c18.1-11.5,32.3-26.6,40-42.5c7.3-15.1,7.8-29.1,1.3-39.3C322.4,398.4,309.9,392.9,293.3,392.9z" style="fill:#383A48;"/>
			</g>
		</g>
		<g>
			<path d="M191.6,500.4c-1.7,0-3.3-0.8-4.2-2.3c-1.5-2.3-0.8-5.4,1.5-6.9l141.5-89.6c2.3-1.5,5.4-0.8,6.9,1.5     s0.8,5.4-1.5,6.9l-141.5,89.6C193.4,500.2,192.5,500.4,191.6,500.4z" style="fill:#383A48;"/>
		</g>
		<g>
			<path d="M224.1,479.8c-0.3,0-0.5,0-0.8-0.1c-2.7-0.4-4.6-3-4.2-5.7l10.4-68.2c0.4-2.7,3-4.6,5.7-4.2     c2.7,0.4,4.6,3,4.2,5.7L229,475.5C228.6,478.1,226.5,479.8,224.1,479.8z" style="fill:#383A48;"/>
		</g>
		<g>
			<path d="M267.6,452.3c-0.3,0-0.5,0-0.8-0.1c-2.7-0.4-4.6-3-4.2-5.7l8.8-57.7c0.4-2.7,3-4.6,5.7-4.2     c2.7,0.4,4.6,3,4.2,5.7l-8.8,57.7C272.1,450.5,270,452.3,267.6,452.3z" style="fill:#383A48;"/>
		</g>
		<g>
			<path d="M290.1,499.6c-0.5,0-1-0.1-1.4-0.2l-66.1-19.7c-2.6-0.8-4.2-3.6-3.4-6.2c0.8-2.6,3.6-4.1,6.2-3.4l66.1,19.7     c2.6,0.8,4.2,3.6,3.4,6.2C294.3,498.2,292.3,499.6,290.1,499.6z" style="fill:#383A48;"/>
		</g>
		<g>
			<path d="M323.5,469c-0.5,0-1-0.1-1.4-0.2l-56-16.7c-2.6-0.8-4.2-3.6-3.4-6.2c0.8-2.6,3.6-4.2,6.2-3.4l56,16.7     c2.6,0.8,4.2,3.6,3.4,6.2C327.7,467.6,325.7,469,323.5,469z" style="fill:#383A48;"/>
		</g>
	</g>
	<g>
		<g>
			<g>
				
					<ellipse transform="matrix(0.5349 -0.8449 0.8449 0.5349 -329.476 302.7203)" cx="110.2" cy="450.6" rx="52" ry="83.7" style="fill:#7FD6C2;"/>
			</g>
			<g>
				<path d="M141.3,518.4c-0.2,0-0.5,0-0.7,0c-19.5-0.2-41.1-7.1-60.8-19.6s-35.2-29-43.7-46.6      c-8.9-18.4-9.2-35.8-0.8-49c8.3-13.1,23.9-20.3,43.9-20.3c0.2,0,0.5,0,0.7,0c19.5,0.2,41.1,7.1,60.8,19.6s35.2,29,43.7,46.6      c8.9,18.4,9.2,35.8,0.8,49C176.9,511.2,161.4,518.4,141.3,518.4z M79.2,392.9c-16.5,0-29.1,5.5-35.5,15.6      c-6.5,10.2-6,24.2,1.3,39.3c7.7,15.9,21.9,31,40,42.5s37.8,17.9,55.5,18c16.8,0.1,29.6-5.4,36.1-15.6c6.5-10.2,6-24.2-1.3-39.3      c-7.7-15.9-21.9-31-40-42.5s-37.8-17.9-55.5-18C79.7,392.9,79.5,392.9,79.2,392.9z" style="fill:#383A48;"/>
			</g>
		</g>
		<g>
			<path d="M181,500.4c-0.9,0-1.8-0.3-2.7-0.8L36.8,410c-2.3-1.5-3-4.6-1.5-6.9c1.5-2.3,4.6-3,6.9-1.5l141.5,89.6     c2.3,1.5,3,4.6,1.5,6.9C184.3,499.6,182.7,500.4,181,500.4z" style="fill:#383A48;"/>
		</g>
		<g>
			<path d="M148.5,479.8c-2.4,0-4.6-1.8-4.9-4.2l-10.4-68.2c-0.4-2.7,1.5-5.3,4.2-5.7s5.3,1.5,5.7,4.2l10.4,68.2     c0.4,2.7-1.5,5.3-4.2,5.7C149,479.8,148.8,479.8,148.5,479.8z" style="fill:#383A48;"/>
		</g>
		<g>
			<path d="M105,452.3c-2.4,0-4.6-1.8-4.9-4.2l-8.8-57.7c-0.4-2.7,1.5-5.3,4.2-5.7s5.3,1.5,5.7,4.2l8.8,57.7     c0.4,2.7-1.5,5.3-4.2,5.7C105.5,452.3,105.3,452.3,105,452.3z" style="fill:#383A48;"/>
		</g>
		<g>
			<path d="M82.5,499.6c-2.2,0-4.1-1.4-4.8-3.6c-0.8-2.6,0.7-5.4,3.4-6.2l66.1-19.7c2.7-0.8,5.4,0.7,6.2,3.4     c0.8,2.6-0.7,5.4-3.4,6.2l-66.1,19.7C83.4,499.5,82.9,499.6,82.5,499.6z" style="fill:#383A48;"/>
		</g>
		<g>
			<path d="M49.1,469c-2.2,0-4.1-1.4-4.8-3.6c-0.8-2.6,0.7-5.4,3.4-6.2l56-16.7c2.7-0.8,5.4,0.7,6.2,3.4     c0.8,2.6-0.7,5.4-3.4,6.2l-56,16.7C50,468.9,49.5,469,49.1,469z" style="fill:#383A48;"/>
		</g>
	</g>
	<g>
		<path d="M240.4,684.5c-2,0-3.8-1.2-4.6-3.1c-1.1-2.6,0.2-5.5,2.7-6.5l31.5-13c2.6-1.1,5.5,0.2,6.5,2.7    c1.1,2.6-0.2,5.5-2.7,6.5l-31.5,13C241.7,684.4,241.1,684.5,240.4,684.5z" style="fill:#383A48;"/>
	</g>
	<g>
		<path d="M219.4,658.7c-1,0-2-0.3-2.8-0.9c-2.3-1.6-2.8-4.7-1.3-7l19.5-28c1.6-2.3,4.7-2.8,7-1.3    c2.3,1.6,2.8,4.7,1.3,7l-19.5,28C222.5,657.9,221,658.7,219.4,658.7z" style="fill:#383A48;"/>
	</g>
	<g>
		<path d="M131.9,684.5c-0.6,0-1.3-0.1-1.9-0.4l-31.5-13c-2.6-1.1-3.8-4-2.7-6.5s4-3.8,6.5-2.7l31.5,13    c2.6,1.1,3.8,4,2.7,6.5C135.7,683.3,133.8,684.5,131.9,684.5z" style="fill:#383A48;"/>
	</g>
	<g>
		<path d="M152.9,658.7c-1.6,0-3.1-0.8-4.1-2.1l-19.5-28c-1.6-2.3-1-5.4,1.3-7s5.4-1,7,1.3l19.5,28c1.6,2.3,1,5.4-1.3,7    C154.9,658.4,153.9,658.7,152.9,658.7z" style="fill:#383A48;"/>
	</g>
	<g>
		<g>
			<g>
				<g>
					<g>
						<g>
							<path d="M280.6,78.4c-9.7,23.1-94.3,107.9-94.3,107.9s0.9-119.8,10.5-142.9c9.7-23.1,36.2-34,59.3-24.4         C279.3,28.7,290.2,55.3,280.6,78.4z" style="fill:#7FD6C2;"/>
						</g>
						<g>
							<path d="M186.3,191.3c-0.6,0-1.3-0.1-1.9-0.4c-1.9-0.8-3.1-2.6-3.1-4.7c0-4.9,1-121,10.9-144.8         c5.2-12.4,14.9-22.1,27.3-27.2c12.4-5.1,26.1-5.1,38.5,0.1c12.4,5.2,22.1,14.9,27.2,27.3s5.1,26.1-0.1,38.5         c-9.9,23.8-91.8,106-95.3,109.5C188.9,190.8,187.6,191.3,186.3,191.3z M238.7,20.6c-5.2,0-10.4,1-15.3,3         c-10,4.1-17.8,11.8-21.9,21.8c-6.8,16.3-9.4,89.6-10,128.6c27.3-27.9,77.7-81.2,84.5-97.5l0,0c4.2-9.9,4.2-20.9,0.1-30.9         s-11.8-17.8-21.8-21.9C249.2,21.6,244,20.6,238.7,20.6z" style="fill:#383A48;"/>
						</g>
					</g>
					<g>
						<g>
							<path d="M329.2,176.7c-23.2,9.5-142.9,9.6-142.9,9.6s85.3-84.1,108.5-93.6s49.7,1.6,59.2,24.7         C363.5,140.7,352.4,167.2,329.2,176.7z" style="fill:#7FD6C2;"/>
						</g>
						<g>
							<path d="M186.3,191.3c-2,0-3.9-1.2-4.6-3.1c-0.8-1.9-0.3-4,1.1-5.5c3.5-3.5,86.3-84.9,110.1-94.6         c25.7-10.5,55.2,1.8,65.7,27.5s-1.8,55.2-27.5,65.7l0,0C307.3,191.1,191.2,191.3,186.3,191.3L186.3,191.3z M311.9,94.4         c-5.1,0-10.3,1-15.3,3c-16.3,6.7-70,56.7-98,83.9c39-0.4,112.4-2.5,128.7-9.2c20.6-8.5,30.5-32.1,22-52.7         C342.9,103.8,327.8,94.4,311.9,94.4z" style="fill:#383A48;"/>
						</g>
					</g>
					<g>
						<g>
							<path d="M294.2,280.6c-23.1-9.7-107.9-94.3-107.9-94.3s119.8,0.9,142.9,10.5c23.1,9.7,34,36.2,24.4,59.3         S317.3,290.2,294.2,280.6z" style="fill:#7FD6C2;"/>
						</g>
						<g>
							<path d="M311.7,289.1c-6.6,0-13.2-1.3-19.4-3.9l0,0c-23.8-9.9-106-91.8-109.5-95.3c-1.4-1.4-1.9-3.6-1.1-5.5         c0.8-1.9,2.6-3.1,4.6-3.1l0,0c4.9,0,121,1,144.8,10.9c12.4,5.2,22.1,14.9,27.2,27.3s5.1,26.1-0.1,38.5s-14.9,22.1-27.3,27.2         C324.6,287.8,318.1,289.1,311.7,289.1z M198.6,191.5c27.9,27.3,81.2,77.7,97.5,84.5l0,0c9.9,4.2,20.9,4.2,30.9,0.1         s17.8-11.8,21.9-21.8c4.2-9.9,4.2-20.9,0.1-30.9s-11.8-17.8-21.8-21.9C311,194.7,237.6,192.1,198.6,191.5z" style="fill:#383A48;"/>
						</g>
					</g>
					<g>
						<g>
							<path d="M195.9,329.2c-9.5-23.2-9.6-142.9-9.6-142.9s84.1,85.3,93.6,108.5s-1.6,49.7-24.7,59.2         S205.4,352.4,195.9,329.2z" style="fill:#7FD6C2;"/>
						</g>
						<g>
							<path d="M237.9,362.4c-6.6,0-13.2-1.3-19.4-3.9c-12.4-5.2-22.1-14.9-27.2-27.3l0,0c-9.8-23.8-10-139.9-10-144.8         c0-2,1.2-3.9,3.1-4.6c1.9-0.8,4-0.3,5.5,1.1c3.5,3.5,84.9,86.3,94.6,110.1c10.5,25.7-1.8,55.2-27.5,65.7         C250.8,361.1,244.4,362.4,237.9,362.4z M191.4,198.7c0.4,39,2.5,112.4,9.2,128.7l0,0c4.1,10,11.8,17.8,21.8,21.9         c10,4.2,20.9,4.2,30.9,0.1c20.6-8.5,30.5-32.1,22-52.7C268.5,280.4,218.5,226.7,191.4,198.7z" style="fill:#383A48;"/>
						</g>
					</g>
					<g>
						<g>
							<path d="M92,294.2c9.7-23.1,94.3-107.9,94.3-107.9s-0.9,119.8-10.5,142.9c-9.7,23.1-36.2,34-59.3,24.4         C93.3,343.9,82.4,317.3,92,294.2z" style="fill:#7FD6C2;"/>
						</g>
						<g>
							<path d="M133.9,362.1c-6.6,0-13.2-1.3-19.4-3.9c-12.4-5.2-22.1-14.9-27.2-27.3s-5.1-26.1,0.1-38.5         c9.9-23.8,91.8-106,95.3-109.5c1.4-1.4,3.6-1.9,5.5-1.1s3.1,2.6,3.1,4.7c0,4.9-1,121-10.9,144.8         c-5.2,12.4-14.9,22.1-27.3,27.2C146.8,360.8,140.4,362.1,133.9,362.1z M181.1,198.6c-27.3,27.9-77.7,81.2-84.5,97.5l0,0         c-8.6,20.5,1.1,44.2,21.7,52.8c9.9,4.2,20.9,4.2,30.9,0.1c10-4.1,17.8-11.8,21.9-21.8C177.9,311,180.5,237.7,181.1,198.6z" style="fill:#383A48;"/>
						</g>
					</g>
					<g>
						<g>
							<path d="M43.4,195.9c23.2-9.5,142.9-9.6,142.9-9.6S101,270.4,77.8,279.9s-49.7-1.6-59.2-24.7         C9.1,232,20.2,205.5,43.4,195.9z" style="fill:#7FD6C2;"/>
						</g>
						<g>
							<path d="M60.6,288.3c-6.6,0-13.2-1.3-19.4-3.9c-12.4-5.2-22.1-14.9-27.2-27.3c-10.5-25.7,1.8-55.2,27.5-65.7l0,0         c23.8-9.8,139.9-10,144.8-10l0,0c2,0,3.9,1.2,4.6,3.1c0.8,1.9,0.3,4-1.1,5.5c-3.5,3.5-86.3,84.9-110.1,94.6         C73.5,287,67.1,288.3,60.6,288.3z M45.3,200.6c-20.6,8.5-30.5,32.1-22,52.7c4.1,10,11.8,17.8,21.8,21.9         c9.9,4.2,20.9,4.2,30.9,0.1c16.3-6.7,70-56.7,98-83.9C134.9,191.8,61.6,193.9,45.3,200.6L45.3,200.6z" style="fill:#383A48;"/>
						</g>
					</g>
					<g>
						<g>
							<path d="M78.4,92.1c23.1,9.7,107.9,94.3,107.9,94.3s-119.8-0.9-142.9-10.5c-23.1-9.7-34-36.2-24.4-59.3         C28.7,93.3,55.3,82.4,78.4,92.1z" style="fill:#7FD6C2;"/>
						</g>
						<g>
							<path d="M186.3,191.3L186.3,191.3c-5,0-121-1-144.8-10.9c-25.6-10.7-37.8-40.3-27-65.9         c5.2-12.4,14.9-22.1,27.3-27.2c12.4-5.1,26.1-5.1,38.5,0.1l0,0c23.8,9.9,106,91.8,109.5,95.3c1.4,1.4,1.9,3.6,1.1,5.5         C190.1,190.1,188.3,191.3,186.3,191.3z M60.9,93.5c-5.2,0-10.4,1-15.3,3c-10,4.1-17.8,11.8-21.9,21.8         c-8.6,20.5,1.1,44.2,21.7,52.8c16.3,6.8,89.6,9.4,128.6,10c-27.9-27.3-81.2-77.7-97.5-84.5l0,0         C71.5,94.6,66.2,93.5,60.9,93.5z" style="fill:#383A48;"/>
						</g>
					</g>
					<g>
						<g>
							<path d="M176.7,43.4c9.5,23.2,9.6,142.9,9.6,142.9S102.2,101,92.7,77.8c-9.5-23.2,1.6-49.7,24.7-59.2         C140.6,9.1,167.2,20.2,176.7,43.4z" style="fill:#7FD6C2;"/>
						</g>
						<g>
							<path d="M186.3,191.3c-1.3,0-2.6-0.5-3.6-1.5c-3.5-3.5-84.9-86.3-94.6-110.1C83,67.3,83,53.6,88.2,41.2         c5.2-12.4,14.9-22.1,27.3-27.2c12.4-5.1,26.1-5.1,38.5,0.1c12.4,5.2,22.1,14.9,27.2,27.3l0,0c9.8,23.8,10,139.9,10,144.8         c0,2-1.2,3.9-3.1,4.6C187.6,191.2,186.9,191.3,186.3,191.3z M134.7,20.2c-5.2,0-10.4,1-15.3,3c-10,4.1-17.8,11.8-21.9,21.8         s-4.2,20.9-0.1,30.9c6.7,16.3,56.7,70,83.9,98c-0.4-39-2.5-112.4-9.2-128.7c-4.1-10-11.8-17.8-21.8-21.9         C145.2,21.3,140,20.2,134.7,20.2z" style="fill:#383A48;"/>
						</g>
					</g>
				</g>
			</g>
			<g>
				<g>
					<g>
						<path d="M231.7,50.4c0,25.1-45.4,135.9-45.4,135.9S140.9,75.5,140.9,50.4S161.2,5,186.3,5S231.7,25.4,231.7,50.4z        " style="fill:#F3F6E6;"/>
						<path d="M186.3,191.3c-2,0-3.9-1.2-4.6-3.1c-1.9-4.6-45.7-112-45.7-137.8C136,22.6,158.6,0,186.4,0        s50.4,22.6,50.4,50.4c0,25.7-43.9,133.2-45.7,137.8C190.2,190.1,188.3,191.3,186.3,191.3z M186.3,10.1        c-22.3,0-40.4,18.1-40.4,40.4c0,17.6,25.9,86.3,40.4,122.5c14.4-36.3,40.4-104.9,40.4-122.6C226.7,28.2,208.6,10.1,186.3,10.1        z" style="fill:#383A48;"/>
					</g>
					<g>
						<path d="M314.5,122.3c-17.7,17.7-128.2,64-128.2,64s46.3-110.4,64-128.2c17.7-17.7,46.4-17.7,64.2,0        S332.2,104.6,314.5,122.3z" style="fill:#F3F6E6;"/>
						<path d="M186.3,191.3c-1.3,0-2.6-0.5-3.5-1.5c-1.4-1.4-1.9-3.6-1.1-5.5c0.1-0.3,11.8-28,25.4-57.6        c18.5-40.1,31.9-64.4,39.7-72.2c19.6-19.6,51.6-19.6,71.2,0s19.6,51.6,0,71.2c-7.8,7.8-32,21.1-72.2,39.6        c-29.6,13.7-57.3,25.3-57.6,25.4C187.6,191.2,186.9,191.3,186.3,191.3z M282.4,49.9c-10.3,0-20.7,3.9-28.5,11.8        c-12.5,12.5-42.7,79.3-58.1,115.2c35.8-15.4,102.7-45.6,115.2-58.1c15.7-15.7,15.7-41.3,0-57.1        C303.1,53.8,292.7,49.9,282.4,49.9z" style="fill:#383A48;"/>
					</g>
					<g>
						<path d="M322.2,231.7c-25.1,0-135.9-45.4-135.9-45.4s110.8-45.4,135.9-45.4s45.4,20.3,45.4,45.4        S347.2,231.7,322.2,231.7z" style="fill:#F3F6E6;"/>
						<path d="M322.2,236.7c-25.7,0-133.2-43.9-137.8-45.7c-1.9-0.8-3.1-2.6-3.1-4.6s1.2-3.9,3.1-4.6        c4.6-1.9,112-45.7,137.8-45.7c27.8,0,50.4,22.6,50.4,50.4S349.9,236.7,322.2,236.7z M199.7,186.3        c36.2,14.5,104.9,40.4,122.5,40.4c22.3,0,40.4-18.1,40.4-40.4s-18.1-40.4-40.4-40.4C304.5,146,235.9,171.9,199.7,186.3z" style="fill:#383A48;"/>
					</g>
					<g>
						<path d="M250.3,314.5c-17.7-17.7-64-128.2-64-128.2s110.4,46.3,128.2,64s17.7,46.4,0,64.2S268,332.2,250.3,314.5z        " style="fill:#F3F6E6;"/>
						<path d="M282.4,332.7c-12.9,0-25.8-4.9-35.6-14.7c-7.8-7.8-21.1-32-39.7-72.2c-13.7-29.6-25.3-57.3-25.4-57.6        c-0.8-1.9-0.4-4,1.1-5.5c1.4-1.4,3.6-1.9,5.5-1.1c0.3,0.1,28,11.8,57.6,25.4c40.1,18.5,64.4,31.9,72.2,39.6        c19.6,19.6,19.6,51.6,0,71.2C308.2,327.8,295.3,332.7,282.4,332.7z M195.7,195.8c15.4,35.8,45.6,102.7,58.1,115.2        c15.7,15.7,41.3,15.7,57.1,0c15.7-15.7,15.7-41.3,0-57.1C298.4,241.4,231.6,211.2,195.7,195.8z" style="fill:#383A48;"/>
					</g>
					<g>
						<path d="M140.9,322.2c0-25.1,45.4-135.9,45.4-135.9s45.4,110.8,45.4,135.9s-20.3,45.4-45.4,45.4        S140.9,347.3,140.9,322.2z" style="fill:#F3F6E6;"/>
						<path d="M186.3,372.6c-27.8,0-50.4-22.6-50.4-50.4c0-25.7,43.9-133.2,45.7-137.8c0.8-1.9,2.6-3.1,4.6-3.1        s3.9,1.2,4.6,3.1c1.9,4.6,45.7,112,45.7,137.8C236.7,350,214.1,372.6,186.3,372.6z M186.3,199.7        c-14.5,36.2-40.4,104.9-40.4,122.5c0,22.3,18.1,40.4,40.4,40.4s40.4-18.1,40.4-40.4C226.7,304.6,200.7,235.9,186.3,199.7z" style="fill:#383A48;"/>
					</g>
					<g>
						<path d="M58.1,250.3c17.7-17.7,128.2-64,128.2-64s-46.3,110.4-64,128.2s-46.4,17.7-64.2,0S40.4,268,58.1,250.3z" style="fill:#F3F6E6;"/>
						<path d="M90.2,332.7c-12.9,0-25.8-4.9-35.6-14.7c-19.6-19.6-19.6-51.6,0-71.2c7.8-7.8,32-21.1,72.2-39.6        c29.6-13.7,57.3-25.3,57.6-25.4c1.9-0.8,4-0.4,5.5,1.1c1.4,1.4,1.9,3.6,1.1,5.5c-0.1,0.3-11.8,28-25.4,57.6        c-18.5,40.1-31.9,64.4-39.6,72.2C116,327.8,103.1,332.7,90.2,332.7z M176.8,195.8C141,211.2,74.1,241.4,61.7,253.9        C46,269.6,46,295.2,61.7,311c15.7,15.7,41.3,15.7,57.1,0C131.2,298.5,161.4,231.6,176.8,195.8z" style="fill:#383A48;"/>
					</g>
					<g>
						<path d="M50.4,141c25.1,0,135.9,45.4,135.9,45.4S75.5,231.8,50.4,231.8S5,211.5,5,186.4S25.4,141,50.4,141z" style="fill:#F3F6E6;"/>
						<path d="M50.4,236.7C22.6,236.7,0,214.1,0,186.3s22.6-50.4,50.4-50.4c25.7,0,133.2,43.9,137.8,45.7        c1.9,0.8,3.1,2.6,3.1,4.6s-1.2,3.9-3.1,4.6C183.6,192.8,76.2,236.7,50.4,236.7z M50.4,146C28.1,146,10,164.1,10,186.4        s18.1,40.4,40.4,40.4c17.6,0,86.3-25.9,122.5-40.4C136.7,171.9,68,146,50.4,146z" style="fill:#383A48;"/>
					</g>
					<g>
						<path d="M122.3,58.2c17.7,17.7,64,128.2,64,128.2s-110.4-46.3-128.2-64s-17.7-46.4,0-64.2S104.6,40.4,122.3,58.2z        " style="fill:#F3F6E6;"/>
						<path d="M186.3,191.3c-0.7,0-1.3-0.1-1.9-0.4c-0.3-0.1-28-11.8-57.6-25.4c-40.1-18.5-64.4-31.9-72.2-39.6        C35,106.3,35,74.3,54.6,54.7s51.6-19.6,71.2,0c7.8,7.8,21.1,32,39.6,72.2c13.7,29.6,25.3,57.3,25.4,57.6        c0.8,1.9,0.4,4-1.1,5.5C188.9,190.8,187.6,191.3,186.3,191.3z M90.2,49.9c-10.3,0-20.7,3.9-28.5,11.8        C46,77.4,46,103,61.7,118.8c12.5,12.5,79.3,42.7,115.2,58.1c-15.4-35.8-45.6-102.7-58.1-115.2        C110.9,53.8,100.5,49.9,90.2,49.9z" style="fill:#383A48;"/>
					</g>
				</g>
			</g>
		</g>
		<g>
			<g>
				<circle cx="186.3" cy="186.3" r="90.6" style="fill:#F6E049;"/>
				<path d="M186.3,281.9c-52.7,0-95.6-42.9-95.6-95.6s42.9-95.6,95.6-95.6s95.6,42.9,95.6,95.6S239,281.9,186.3,281.9z       M186.3,100.7c-47.2,0-85.6,38.4-85.6,85.6s38.4,85.6,85.6,85.6c47.2,0,85.6-38.4,85.6-85.6S233.5,100.7,186.3,100.7z" style="fill:#383A48;"/>
			</g>
			<g>
				<circle cx="157.3" cy="173.1" r="9.7" style="fill:#383A48;"/>
			</g>
			<g>
				<circle cx="215.3" cy="173.1" r="9.7" style="fill:#383A48;"/>
			</g>
			<g>
				<path d="M186.3,228.4c-14.4,0-27.7-8.5-33.7-21.6c-1.2-2.5,0-5.5,2.5-6.6c2.5-1.2,5.5,0,6.6,2.5      c4.4,9.6,14.1,15.8,24.6,15.8c10.6,0,20.2-6.2,24.6-15.8c1.2-2.5,4.1-3.6,6.6-2.5c2.5,1.2,3.6,4.1,2.5,6.6      C214,219.9,200.7,228.4,186.3,228.4z" style="fill:#383A48;"/>
			</g>
		</g>
	</g>
</g>

</g>
</g>
</g>

<!-- ITEM 2 -->
<g transform="translate(227.0 890.0) rotate(0.0 523.0 208.5) scale(0.7381271611036625 0.7377919320594479)">
<g transform="translate(-0.0 -0.0)">
<g clip-path="url(#clipPathId-collage-item-2)">
		<defs>
			<clipPath id="clipPathId-collage-item-2">
				<rect x="0.0" y="0.0" width="1417.1" height="565.2"/>
			</clipPath>
		</defs>


<g>
	<g>
		<path d="M1412.1,565.2H5c-2.8,0-5-2.2-5-5s2.2-5,5-5h1407.1c2.8,0,5,2.2,5,5S1414.9,565.2,1412.1,565.2z" style="fill:#383A48;"/>
	</g>
	<g>
		<g>
			<path d="M409,560.2H101.1v-13.4c0-52.2,42.3-94.6,94.6-94.6h194.5" style="fill:#F6E049;"/>
			<path d="M409,565.2H101.1c-2.8,0-5-2.2-5-5v-13.4c0-54.9,44.7-99.6,99.6-99.6h194.5c2.8,0,5,2.2,5,5s-2.2,5-5,5     H195.7c-49.4,0-89.6,40.2-89.6,89.6v8.4H409c2.8,0,5,2.2,5,5S411.7,565.2,409,565.2z" style="fill:#383A48;"/>
		</g>
		<g>
			<path d="M195.7,457.5h16.1c13.8,0,25,11.2,25,25v47.6c0,13.8-11.2,25-25,25H106v-7.8     C106,497.6,146.2,457.5,195.7,457.5z" style="fill:#F3F6E6;"/>
		</g>
		<g>
			<path d="M139.8,565.2c-2.8,0-5-2.2-5-5v-13.4c0-15.5,3.5-30.4,10.3-44.2c1.2-2.5,4.2-3.5,6.7-2.3s3.5,4.2,2.3,6.7     c-6.2,12.4-9.3,25.8-9.3,39.8v13.4C144.8,563,142.5,565.2,139.8,565.2z" style="fill:#383A48;"/>
		</g>
		<g>
			<path d="M174.4,565.2c-2.8,0-5-2.2-5-5v-13.4c0-15.5,3.5-30.4,10.3-44.2c1.2-2.5,4.2-3.5,6.7-2.3s3.5,4.2,2.3,6.7     c-6.2,12.4-9.3,25.8-9.3,39.8v13.4C179.4,563,177.2,565.2,174.4,565.2z" style="fill:#383A48;"/>
		</g>
	</g>
	<g>
		<path d="M1259.5,406.2c-0.8,85.3-70.3,154-155.6,154H493.6V188.3c71.2,30.9,112.3,15.1,155.5-21.2    c7.1-5.9,14.2-12.4,21.5-19.3c13.6-12.9,27.9-27.3,43.8-42.4c5.4-5.2,10.9-10.1,16.5-14.8C748,76.2,766,63.6,784.6,53l0,0    c29.5-16.9,60.5-29.2,92-37.1l0,0c23.3-5.9,46.7-9.3,69.9-10.5c41.6-2.1,82.2,3.1,119.3,15.2c1.5,0.5,3,1,4.5,1.5l0,0    c62.8,21.5,114.6,62.9,141.2,120.9C1255.2,238.3,1260.5,308.6,1259.5,406.2z" style="fill:#F6E049;"/>
		<path d="M1103.9,565.2H493.6c-2.8,0-5-2.2-5-5V188.3c0-1.7,0.8-3.3,2.3-4.2c1.4-0.9,3.2-1.1,4.7-0.4    c33.3,14.4,60.4,19,85.3,14.3c21.1-4,41.1-14.7,65-34.7c6.4-5.4,13.2-11.5,21.3-19.1c7.1-6.7,14.4-13.8,22.1-21.3    c7-6.8,14.2-13.9,21.7-21.1c5.4-5.2,11.1-10.2,16.7-15c16.9-14.3,35.3-27.2,54.4-38.2c0.1,0,0.1-0.1,0.2-0.1    c29.1-16.7,60.4-29.3,93-37.5h0.1c23.2-5.8,47-9.4,70.7-10.6c41.7-2.1,83.5,3.2,121.1,15.4c1.5,0.5,2.9,1,4.4,1.5    c0.1,0,0.1,0,0.2,0.1c66.9,22.9,118.1,66.8,144.1,123.6c21,45.8,34.1,87.8,41.2,132.1c7.2,44.8,7.8,90.5,7.4,133.3l0,0    c-0.4,42.6-17.3,82.5-47.6,112.5C1186.6,548.7,1146.5,565.2,1103.9,565.2z M498.6,555.2h605.3c39.9,0,77.6-15.5,106-43.6    c28.4-28.1,44.3-65.6,44.6-105.5c0.5-48.9-0.6-90-7.2-131.6c-7-43.4-19.8-84.6-40.4-129.5c-24.8-54.2-73.9-96.2-138.1-118.2    c-0.1,0-0.1,0-0.2-0.1c-1.5-0.5-2.9-1-4.4-1.5c-36.4-11.8-77-17-117.5-14.9c-23.1,1.2-46.3,4.7-68.9,10.4c-0.1,0-0.1,0-0.2,0    c-31.7,8-62.2,20.3-90.5,36.6c-0.1,0-0.1,0.1-0.2,0.1c-18.6,10.7-36.3,23.1-52.8,37c-5.5,4.7-11,9.6-16.3,14.6    c-7.5,7.2-14.7,14.2-21.6,21c-7.7,7.5-15,14.7-22.2,21.5c-8.3,7.8-15.2,14-21.7,19.5c-25.2,21.2-46.7,32.6-69.6,36.9    c-25.2,4.7-52.1,0.9-84.2-12L498.6,555.2L498.6,555.2z M1259.5,406.2L1259.5,406.2L1259.5,406.2z" style="fill:#383A48;"/>
	</g>
	<g>
		<g>
			<path d="M846.4,277c-4,1.4-8,2.1-12,2.1c-14.3,0-27.7-8.8-32.9-23.1c-15.4-42.3-41.3-72.8-77.1-90.6     c-25.4-12.7-46.6-14.1-46.8-14.1c-0.9,0-1.8-0.1-2.7-0.2c13.6-12.9,27.9-27.3,43.8-42.5c5.4-5.2,10.9-10.1,16.5-14.8     c6.5,2.5,13.4,5.4,20.4,8.9c36.1,18,84.7,55,111.7,129.4C873.9,250.3,864.6,270.4,846.4,277z" style="fill:#F3F6E6;"/>
		</g>
	</g>
	<g>
		<g>
			<path d="M954.8,203.9c-3.3,0.9-6.5,1.4-9.7,1.3c-15.2-0.1-29.1-10.1-33.5-25.4c-14.2-50.1-41.6-86.2-81.5-107.4     c-16.4-8.7-31.9-13.2-42.8-15.4c29.6-16.8,60.7-28.9,92.1-36.7l0,0c36.9,23.9,78.4,66.3,99.5,140.4     C984.1,179.2,973.3,198.6,954.8,203.9z" style="fill:#F3F6E6;"/>
		</g>
	</g>
	<g>
		<g>
			<path d="M1078.3,144.4c-3,0.7-6,1.1-9,1c-15.5-0.2-29.5-10.8-33.5-26.5c-10.9-43.6-33.6-76.6-67.4-98.1     c-6.7-4.3-13.2-7.6-19-10.2c43.3-1.6,85.5,4.7,123.5,18.4l0,0c12.6,19.8,23.5,43.9,30.7,72.9     C1108.5,120.7,1097.1,139.7,1078.3,144.4z" style="fill:#F3F6E6;"/>
		</g>
	</g>
	<g>
		<path d="M404.7,186.7c-0.7-2-2.6-3.4-4.7-3.4c-31.6,0-50.4-21.2-68.6-41.7c-18.2-20.6-37.1-41.9-68.1-40.1    c-16.5,0.9-29.6,6-40.1,15.6c-9.6,8.8-17,21.6-22.6,39c-10.3,32.4-13.8,78.9-18.2,137.8c-1.4,18.2-2.8,37-4.5,57.3    c-0.2,2,0.8,3.8,2.6,4.8c0.8,0.4,1.6,0.6,2.4,0.6c1.1,0,2.1-0.3,3-1l217.2-163.3C404.7,191,405.4,188.8,404.7,186.7z" style="fill:#383A48;"/>
		<path d="M670,351.2c-1.7-20.2-3.2-39.1-4.5-57.3c-4.4-58.9-7.9-105.4-18.2-137.8c-5.6-17.4-12.9-30.2-22.6-39    c-10.4-9.6-23.6-14.7-40.1-15.6c-31-1.7-49.9,19.6-68.1,40.1c-18.2,20.5-37,41.7-68.6,41.7c-2.2,0-4.1,1.4-4.7,3.4    c-0.7,2,0,4.3,1.7,5.6l217.2,163.3c0.9,0.7,1.9,1,3,1c0.8,0,1.7-0.2,2.4-0.6C669.1,355,670.1,353.1,670,351.2z" style="fill:#383A48;"/>
		<g>
			<path d="M493.6,188.3H354.2c-53.5,0-102.5,29.9-127.1,77.4l-44.3,85.9c-20.1,39-21.2,85-3.1,124.9l0,0     c23.2,51,74.1,83.7,130.1,83.7h228c56,0,106.9-32.7,130.1-83.7l0,0c18.2-39.9,17.1-85.9-3.1-124.9l-44.3-85.9     C596.1,218.2,547.1,188.3,493.6,188.3z" style="fill:#F6E049;"/>
			<path d="M537.9,565.2h-228c-57.8,0-110.7-34-134.7-86.6c-18.9-41.6-17.8-88.7,3.2-129.3l44.3-85.9     c25.5-49.4,75.9-80.1,131.5-80.1h139.4c55.6,0,106,30.7,131.5,80.1l44.3,85.9c21,40.6,22.1,87.7,3.2,129.3     C648.6,531.2,595.7,565.2,537.9,565.2z M354.2,193.3c-51.9,0-98.8,28.6-122.6,74.7l-44.3,85.9c-19.5,37.8-20.6,81.8-2.9,120.5     c22.4,49.1,71.7,80.8,125.6,80.8h228c53.9,0,103.2-31.7,125.6-80.8c17.7-38.8,16.6-82.7-2.9-120.5L616.4,268     c-23.8-46.1-70.8-74.7-122.6-74.7H354.2z" style="fill:#383A48;"/>
		</g>
		<g>
			<path d="M437.7,481.5h-16.2c-21.9,0-39.6-17.7-39.6-39.6v-4.2c0-21.9,17.7-39.6,39.6-39.6h16.2     c21.9,0,39.6,17.7,39.6,39.6v4.2C477.3,463.8,459.6,481.5,437.7,481.5z" style="fill:#F3F6E6;"/>
			<path d="M437.7,486.5h-16.2c-24.6,0-44.6-20-44.6-44.6v-4.2c0-24.6,20-44.6,44.6-44.6h16.2c24.6,0,44.6,20,44.6,44.6     v4.2C482.3,466.5,462.3,486.5,437.7,486.5z M421.5,403.1c-19.1,0-34.6,15.5-34.6,34.6v4.2c0,19.1,15.5,34.6,34.6,34.6h16.2     c19.1,0,34.6-15.5,34.6-34.6v-4.2c0-19.1-15.5-34.6-34.6-34.6H421.5z" style="fill:#F3F6E6;"/>
		</g>
		<g>
			<path d="M326.2,481.5h16.2c21.9,0,39.6-17.7,39.6-39.6v-4.2c0-21.9-17.7-39.6-39.6-39.6h-16.2     c-21.9,0-39.6,17.7-39.6,39.6v4.2C286.6,463.8,304.4,481.5,326.2,481.5z" style="fill:#F3F6E6;"/>
			<path d="M342.4,486.5h-16.2c-24.6,0-44.6-20-44.6-44.6v-4.2c0-24.6,20-44.6,44.6-44.6h16.2c24.6,0,44.6,20,44.6,44.6     v4.2C387,466.5,367,486.5,342.4,486.5z M326.2,403.1c-19.1,0-34.6,15.5-34.6,34.6v4.2c0,19.1,15.5,34.6,34.6,34.6h16.2     c19.1,0,34.6-15.5,34.6-34.6v-4.2c0-19.1-15.5-34.6-34.6-34.6H326.2z" style="fill:#F3F6E6;"/>
		</g>
		<g>
			<path d="M245.5,393.3c-4.5,0-9.1-0.4-13.7-1.3c-26.6-5.1-47.3-24.1-53.9-49.6c-0.7-2.7,0.9-5.4,3.6-6.1     c2.7-0.7,5.4,0.9,6.1,3.6c5.6,21.7,23.3,37.9,46.1,42.3c24.3,4.6,48.8-5.4,63.9-26.1c1.6-2.2,4.8-2.7,7-1.1     c2.2,1.6,2.7,4.8,1.1,7C291.2,382,268.9,393.3,245.5,393.3z" style="fill:#383A48;"/>
		</g>
		<g>
			<path d="M532.5,393.2c-25.6,0-49.4-13.4-63.4-36.3c-1.4-2.4-0.7-5.4,1.7-6.9c2.4-1.4,5.4-0.7,6.9,1.7     c13.4,21.9,37,33.8,61.6,31.2c23.1-2.5,42-17.2,49.4-38.4c0.9-2.6,3.8-4,6.4-3.1c2.6,0.9,4,3.8,3.1,6.4     c-8.7,24.9-30.8,42.2-57.7,45C537.8,393,535.1,393.2,532.5,393.2z" style="fill:#383A48;"/>
		</g>
		<g>
			<path d="M374.5,402.1L357.7,384c-6.1-6.5-1.4-17.2,7.5-17.2h33.5c8.9,0,13.6,10.6,7.5,17.2l-16.8,18.1     C385.4,406.5,378.5,406.5,374.5,402.1z" style="fill:#383A48;"/>
			<path d="M382,410.4c-4.2,0-8.3-1.8-11.2-4.9l0,0L354,387.4c-4.2-4.5-5.2-10.8-2.8-16.4c2.5-5.6,7.8-9.1,14-9.1h33.5     c6.1,0,11.5,3.5,14,9.1s1.4,11.9-2.8,16.4l-16.8,18.1C390.3,408.6,386.2,410.4,382,410.4z M378.1,398.7c1,1.1,2.4,1.7,3.8,1.7     s2.8-0.6,3.8-1.7l16.8-18.1c2.2-2.3,1.3-4.9,1-5.6s-1.6-3.1-4.8-3.1h-33.5c-3.2,0-4.5,2.4-4.8,3.1c-0.3,0.7-1.2,3.3,1,5.6     L378.1,398.7L378.1,398.7z" style="fill:#383A48;"/>
		</g>
		<g>
			<path d="M382,478.2c-2.8,0-5-2.2-5-5v-80.4c0-2.8,2.2-5,5-5s5,2.2,5,5v80.4C387,476,384.7,478.2,382,478.2z" style="fill:#383A48;"/>
		</g>
		<g>
			<path d="M450,305.5H350c-29.1,0-52.7-23.6-52.7-52.7l0,0c0-29.1,23.6-52.7,52.7-52.7h100c29.1,0,52.7,23.6,52.7,52.7     l0,0C502.6,281.9,479,305.5,450,305.5z" style="fill:#F3F6E6;"/>
			<path d="M450,310.5H350c-31.8,0-57.7-25.9-57.7-57.7s25.9-57.7,57.7-57.7h100c31.8,0,57.7,25.9,57.7,57.7     C507.6,284.7,481.8,310.5,450,310.5z M350,205.2c-26.3,0-47.7,21.4-47.7,47.7s21.4,47.7,47.7,47.7h100     c26.3,0,47.7-21.4,47.7-47.7s-21.4-47.7-47.7-47.7H350z" style="fill:#F3F6E6;"/>
		</g>
		<g>
			<line x1="368.6" y1="188.3" x2="360.2" y2="231.5" style="fill:none;"/>
			<path d="M360.2,236.5c-0.3,0-0.6,0-1-0.1c-2.7-0.5-4.5-3.2-4-5.9l8.4-43.2c0.5-2.7,3.1-4.5,5.9-4     c2.7,0.5,4.5,3.2,4,5.9l-8.4,43.2C364.7,234.9,362.6,236.5,360.2,236.5z" style="fill:#383A48;"/>
		</g>
		<g>
			<line x1="400" y1="188.3" x2="391.5" y2="231.5" style="fill:none;"/>
			<path d="M391.6,236.5c-0.3,0-0.6,0-1-0.1c-2.7-0.5-4.5-3.2-4-5.9l8.4-43.2c0.5-2.7,3.2-4.5,5.9-4s4.5,3.2,4,5.9     l-8.4,43.2C396,234.9,393.9,236.5,391.6,236.5z" style="fill:#383A48;"/>
		</g>
		<g>
			<line x1="431.3" y1="188.3" x2="422.9" y2="231.5" style="fill:none;"/>
			<path d="M422.9,236.5c-0.3,0-0.6,0-1-0.1c-2.7-0.5-4.5-3.2-4-5.9l8.4-43.2c0.5-2.7,3.2-4.5,5.9-4s4.5,3.2,4,5.9     l-8.4,43.2C427.3,234.9,425.2,236.5,422.9,236.5z" style="fill:#383A48;"/>
		</g>
		<g>
			<circle cx="592.5" cy="426.3" r="6.8" style="fill:#383A48;"/>
			<path d="M592.5,438c-6.5,0-11.8-5.3-11.8-11.8s5.3-11.8,11.8-11.8s11.8,5.3,11.8,11.8S599,438,592.5,438z      M592.5,424.5c-1,0-1.8,0.8-1.8,1.8s0.8,1.8,1.8,1.8s1.8-0.8,1.8-1.8S593.5,424.5,592.5,424.5z" style="fill:#383A48;"/>
		</g>
		<g>
			<circle cx="637.9" cy="458.5" r="6.8" style="fill:#383A48;"/>
			<path d="M637.9,470.2c-6.5,0-11.8-5.3-11.8-11.8s5.3-11.8,11.8-11.8s11.8,5.3,11.8,11.8S644.3,470.2,637.9,470.2z      M637.9,456.7c-1,0-1.8,0.8-1.8,1.8s0.8,1.8,1.8,1.8s1.8-0.8,1.8-1.8S638.8,456.7,637.9,456.7z" style="fill:#383A48;"/>
		</g>
		<g>
			<circle cx="637.9" cy="388.3" r="6.8" style="fill:#383A48;"/>
			<path d="M637.9,400.1c-6.5,0-11.8-5.3-11.8-11.8s5.3-11.8,11.8-11.8s11.8,5.3,11.8,11.8S644.3,400.1,637.9,400.1z      M637.9,386.5c-1,0-1.8,0.8-1.8,1.8s0.8,1.8,1.8,1.8s1.8-0.8,1.8-1.8C639.6,387.3,638.8,386.5,637.9,386.5z" style="fill:#383A48;"/>
		</g>
		<g>
			<circle cx="216.7" cy="435.9" r="6.8" style="fill:#383A48;"/>
			<path d="M216.7,447.7c-6.5,0-11.8-5.3-11.8-11.8s5.3-11.8,11.8-11.8s11.8,5.3,11.8,11.8S223.2,447.7,216.7,447.7z      M216.7,434.2c-1,0-1.8,0.8-1.8,1.8s0.8,1.8,1.8,1.8s1.8-0.8,1.8-1.8S217.7,434.2,216.7,434.2z" style="fill:#383A48;"/>
		</g>
		<g>
			<path d="M171.4,391.2c-0.5,0-1,0.1-1.5,0.2c0.3,1.2,0.4,2.5,0.5,3.7c0.1,3.2-0.6,6.2-2,8.9c0.9,0.5,1.9,0.8,3.1,0.8     c3.7,0,6.8-3,6.8-6.8C178.2,394.2,175.1,391.2,171.4,391.2z" style="fill:#383A48;"/>
			<path d="M171.4,409.7c-1.8,0-3.6-0.4-5.3-1.3c-1.2-0.6-2.1-1.7-2.5-2.9c-0.4-1.3-0.3-2.6,0.3-3.8     c1.1-2.1,1.5-4.2,1.5-6.3c0-0.9-0.2-1.9-0.4-2.9c-0.6-2.6,1.1-5.3,3.7-5.9c0.9-0.2,1.8-0.3,2.7-0.3c6.5,0,11.8,5.3,11.8,11.8     S177.9,409.7,171.4,409.7z" style="fill:#383A48;"/>
		</g>
	</g>
	<g>
		<g>
			<path d="M810.5,560.2H502.6v-13.4c0-52.2,42.3-94.6,94.6-94.6h194.5" style="fill:#F6E049;"/>
			<path d="M810.5,565.2H502.6c-2.8,0-5-2.2-5-5v-13.4c0-54.9,44.7-99.6,99.6-99.6h194.5c2.8,0,5,2.2,5,5s-2.2,5-5,5     H597.2c-49.4,0-89.6,40.2-89.6,89.6v8.4h302.9c2.8,0,5,2.2,5,5S813.2,565.2,810.5,565.2z" style="fill:#383A48;"/>
		</g>
		<g>
			<path d="M596.8,457.5h16.1c13.8,0,25,11.2,25,25v47.6c0,13.8-11.2,25-25,25H507.1v-7.8     C507.1,497.6,547.2,457.5,596.8,457.5z" style="fill:#F3F6E6;"/>
		</g>
		<g>
			<path d="M541.3,565.2c-2.8,0-5-2.2-5-5v-13.4c0-15.5,3.5-30.4,10.3-44.2c1.2-2.5,4.2-3.5,6.7-2.3s3.5,4.2,2.3,6.7     c-6.2,12.4-9.3,25.8-9.3,39.8v13.4C546.3,563,544.1,565.2,541.3,565.2z" style="fill:#383A48;"/>
		</g>
		<g>
			<path d="M575.9,565.2c-2.8,0-5-2.2-5-5v-13.4c0-15.5,3.5-30.4,10.3-44.2c1.2-2.5,4.2-3.5,6.7-2.3s3.5,4.2,2.3,6.7     c-6.2,12.4-9.3,25.8-9.3,39.8v13.4C580.9,563,578.7,565.2,575.9,565.2z" style="fill:#383A48;"/>
		</g>
	</g>
	<g>
		<path d="M1106,160.6l-28.6,19.9c-68.1,47.6-87,140.1-43.1,210.6l37.7,60.6H952.5c-51.2,0-92.8,41.5-92.8,92.8v15.7    h120.5" style="fill:#F6E049;"/>
		<path d="M980.2,565.2H859.7c-2.8,0-5-2.2-5-5v-15.7c0-53.9,43.9-97.8,97.8-97.8H1063l-32.9-52.9    c-45.3-72.8-25.8-168.3,44.5-217.4l28.6-19.9c2.3-1.6,5.4-1,7,1.2c1.6,2.3,1,5.4-1.2,7l-28.6,19.9    c-65.9,46.1-84.3,135.6-41.8,203.9l37.7,60.6c1,1.5,1,3.5,0.1,5.1c-0.9,1.6-2.6,2.6-4.4,2.6H952.5c-48.4,0-87.8,39.4-87.8,87.8    v10.6h115.5c2.8,0,5,2.2,5,5S983,565.2,980.2,565.2z" style="fill:#383A48;"/>
	</g>
	<g>
		<path d="M954.7,457.5h16.1c13.8,0,25,11.2,25,25v47.6c0,13.8-11.2,25-25,25H865v-7.8    C865,497.6,905.2,457.5,954.7,457.5z" style="fill:#F3F6E6;"/>
	</g>
	<g>
		<path d="M1309.5,451.7h-194.7c-30,0-54.2,24.3-54.2,54.2l0,0c0,30,24.3,54.2,54.2,54.2h194.7    c30,0,54.2-24.3,54.2-54.2l0,0C1363.7,476,1339.5,451.7,1309.5,451.7z" style="fill:#F6E049;"/>
		<path d="M1309.5,565.2h-194.7c-32.7,0-59.2-26.6-59.2-59.2s26.6-59.2,59.2-59.2h194.7c32.7,0,59.2,26.6,59.2,59.2    S1342.2,565.2,1309.5,565.2z M1114.8,456.7c-27.2,0-49.2,22.1-49.2,49.2c0,27.1,22.1,49.2,49.2,49.2h194.7    c27.2,0,49.2-22.1,49.2-49.2c0-27.1-22.1-49.2-49.2-49.2H1114.8z" style="fill:#383A48;"/>
	</g>
	<g>
		<rect x="1153" y="456.7" width="49" height="98.5" style="fill:#F3F6E6;"/>
	</g>
	<g>
		<rect x="1255.8" y="456.7" width="49" height="98.5" style="fill:#F3F6E6;"/>
	</g>
	<g>
		<g>
			<path d="M895.8,565.2c-2.8,0-5-2.2-5-5v-13.4c0-15.5,3.5-30.4,10.3-44.2c1.2-2.5,4.2-3.5,6.7-2.3s3.5,4.2,2.3,6.7     c-6.2,12.4-9.3,25.8-9.3,39.8v13.4C900.8,563,898.5,565.2,895.8,565.2z" style="fill:#383A48;"/>
		</g>
		<g>
			<path d="M930.4,565.2c-2.8,0-5-2.2-5-5v-13.4c0-15.5,3.5-30.4,10.3-44.2c1.2-2.5,4.2-3.5,6.7-2.3s3.5,4.2,2.3,6.7     c-6.2,12.4-9.3,25.8-9.3,39.8v13.4C935.4,563,933.2,565.2,930.4,565.2z" style="fill:#383A48;"/>
		</g>
	</g>
	<g>
		<path d="M142.7,292.1c-0.1,0-0.3,0-0.4,0c-2.8-0.2-4.8-2.6-4.6-5.4c0.3-4,0.6-8,0.9-12c0.2-2.8,2.6-4.8,5.4-4.6    s4.8,2.6,4.6,5.4c-0.3,3.9-0.6,7.9-0.9,12C147.5,290.1,145.3,292.1,142.7,292.1z M146,250.3c-0.1,0-0.3,0-0.4,0    c-2.8-0.2-4.8-2.7-4.6-5.4c0.4-4.1,0.7-8.1,1.1-12c0.3-2.8,2.7-4.8,5.4-4.5c2.8,0.3,4.8,2.7,4.5,5.4c-0.4,3.9-0.7,7.9-1.1,11.9    C150.8,248.3,148.6,250.3,146,250.3z M150.4,208.5c-0.2,0-0.4,0-0.6,0c-2.7-0.4-4.7-2.9-4.3-5.6c0.5-4.2,1.1-8.2,1.7-12    c0.4-2.7,2.9-4.6,5.7-4.2c2.7,0.4,4.6,3,4.2,5.7c-0.6,3.7-1.1,7.7-1.6,11.8C155,206.7,152.9,208.5,150.4,208.5z M157.5,167.1    c-0.4,0-0.8,0-1.1-0.1c-2.7-0.6-4.4-3.3-3.7-6c1-4.1,2-8.1,3-11.9c0.8-2.7,3.5-4.2,6.2-3.4c2.7,0.8,4.2,3.5,3.4,6.2    c-1,3.6-2,7.4-2.9,11.4C161.8,165.6,159.8,167.1,157.5,167.1z M423.5,148.3h-12c-2.8,0-5-2.2-5-5s2.2-5,5-5h12c2.8,0,5,2.2,5,5    S426.3,148.3,423.5,148.3z M453.5,147.8c-2.3,0-4.4-1.6-4.9-3.9c-0.6-2.7,1.1-5.4,3.8-6c2.9-0.6,5.6-2,8.8-4.3    c2.2-1.6,5.3-1.2,7,1c1.6,2.2,1.2,5.3-1,7c-4.3,3.2-8.3,5.1-12.6,6.1C454.2,147.7,453.8,147.8,453.5,147.8z M383,142.1    c-1.1,0-2.1-0.3-3-1c-2.8-2.2-5.8-4.9-9.4-8.5c-1.9-2-1.9-5.1,0-7.1c2-1.9,5.1-1.9,7.1,0c3.2,3.3,6,5.8,8.4,7.6    c2.2,1.7,2.6,4.8,0.9,7C386,141.4,384.5,142.1,383,142.1z M170.9,127.4c-0.7,0-1.5-0.2-2.2-0.5c-2.5-1.2-3.5-4.2-2.3-6.7    c1.8-3.8,3.8-7.5,5.9-11c1.4-2.4,4.5-3.1,6.9-1.7s3.1,4.5,1.7,6.9c-1.9,3.2-3.7,6.6-5.4,10.2C174.6,126.4,172.8,127.4,170.9,127.4    z M485.3,121.4c-1.2,0-2.4-0.4-3.3-1.3c-2.1-1.8-2.3-5-0.4-7.1l1.4-1.5c2.2-2.4,4.4-4.9,6.7-7.5c1.9-2,5-2.2,7.1-0.3    s2.2,5,0.3,7.1c-2.3,2.5-4.5,5-6.6,7.4l-1.4,1.5C488.1,120.8,486.7,121.4,485.3,121.4z M354,111.9c-1.4,0-2.7-0.5-3.7-1.6    c-2.9-3.2-5.6-6-8.1-8.6c-1.9-2-1.9-5.1,0-7.1c2-1.9,5.1-1.9,7.1,0c2.6,2.6,5.4,5.5,8.4,8.9c1.9,2,1.7,5.2-0.3,7.1    C356.4,111.4,355.2,111.9,354,111.9z M195.2,93.5c-1.3,0-2.7-0.5-3.6-1.6c-1.9-2-1.8-5.2,0.2-7.1c0.3-0.3,0.7-0.6,1-1    c2.8-2.5,5.7-4.9,8.7-7.1c2.2-1.6,5.4-1.1,7,1.1s1.1,5.4-1.1,7c-2.7,2-5.3,4.1-7.8,6.4c-0.3,0.3-0.6,0.6-0.9,0.9    C197.6,93,196.4,93.5,195.2,93.5z M514.8,91.5c-1.4,0-2.9-0.6-3.9-1.8c-1.8-2.1-1.5-5.3,0.7-7c2.5-2.1,5.1-4.1,7.7-5.9    c0.8-0.5,1.5-1.1,2.3-1.6c2.3-1.6,5.4-1,6.9,1.3c1.6,2.3,1,5.4-1.3,6.9c-0.7,0.5-1.4,1-2.1,1.5c-2.4,1.7-4.8,3.5-7.1,5.5    C517,91.1,515.9,91.5,514.8,91.5z M642.8,85.3c-1,0-2-0.3-2.9-0.9c-3.1-2.2-6.3-4.2-9.6-6c-2.4-1.3-3.3-4.4-2-6.8s4.4-3.3,6.8-2    c3.7,2,7.3,4.3,10.7,6.7c2.2,1.6,2.8,4.7,1.1,7C645.9,84.6,644.3,85.3,642.8,85.3z M322.8,83.9c-1,0-1.9-0.3-2.8-0.8    c-3.2-2.2-6.5-4.1-9.8-5.9c-2.4-1.3-3.4-4.3-2.1-6.7c1.3-2.4,4.3-3.4,6.7-2.1c3.6,1.9,7.3,4.1,10.8,6.4c2.3,1.5,2.9,4.6,1.4,6.9    C326,83.1,324.4,83.9,322.8,83.9z M231,72.1c-2.1,0-4-1.3-4.7-3.4c-0.9-2.6,0.5-5.5,3.2-6.3c3.9-1.3,8-2.4,12.1-3.3    c2.7-0.6,5.4,1.1,5.9,3.8c0.6,2.7-1.1,5.4-3.8,5.9c-3.8,0.8-7.5,1.8-11,3C232,72,231.5,72.1,231,72.1z M551.2,71.1    c-2.1,0-4.1-1.4-4.8-3.5c-0.8-2.6,0.6-5.4,3.2-6.3c4-1.3,8.1-2.3,12.2-3.1c2.7-0.5,5.3,1.3,5.8,4c0.5,2.7-1.3,5.3-4,5.8    c-3.7,0.7-7.4,1.6-11,2.8C552.2,71,551.7,71.1,551.2,71.1z M604.5,68.8c-0.3,0-0.7,0-1-0.1c-3.7-0.8-7.5-1.3-11.4-1.7    c-2.7-0.3-4.7-2.7-4.5-5.5c0.3-2.7,2.7-4.7,5.5-4.5c4.2,0.4,8.4,1.1,12.4,1.9c2.7,0.6,4.4,3.2,3.9,5.9    C608.9,67.2,606.8,68.8,604.5,68.8z M284.3,68c-0.3,0-0.6,0-0.9-0.1c-3.7-0.7-7.5-1.1-11.3-1.3c-2.8-0.2-4.9-2.5-4.7-5.3    c0.2-2.8,2.5-4.9,5.3-4.7c4.2,0.2,8.4,0.7,12.5,1.5c2.7,0.5,4.5,3.1,4,5.8C288.8,66.3,286.6,68,284.3,68z" style="fill:#383A48;"/>
	</g>
</g>

</g>
</g>
</g>

              </svg>