<?xml version="1.0" encoding="UTF-8"?><svg version="1.1" xmlns="http://www.w3.org/2000/svg" xmlns:xlink="http://www.w3.org/1999/xlink" viewBox="0 0 1600 1200" width="1600" height="1200" x="0px" y="0px">
              
              <!-- ITEM 0 -->
<g transform="translate(229.0 303.0) rotate(0.0 324.0 347.0) scale(0.9353348729792148 0.9343026386645127)">
<g transform="translate(-0.0 -0.0)">
<g clip-path="url(#clipPathId-collage-item-0)">
		<defs>
			<clipPath id="clipPathId-collage-item-0">
				<rect x="0.0" y="0.0" width="692.8" height="742.8"/>
			</clipPath>
		</defs>


<g>
	<g>
		<path d="M512.3,342.3c0-56.4-46.1-102-102.7-101.3c-53.5,0.7-97.6,43.7-99.7,97.1c-1.1,28,9.1,53.5,26.5,72.5    l63.6,97.6c17.2,26.4,19.6,60,5.6,88.3c-34.5,69.9-23,141.3-23,141.3h48.6c0-88.2,31.3-140.6,52.5-166    c12.6-15.1,19.9-34,20.7-53.7l6.7-160.1l0,0C511.9,352.9,512.3,347.6,512.3,342.3z" style="fill:#E0719E;"/>
		<path d="M431.2,742.8h-48.6c-2.5,0-4.5-1.8-4.9-4.2c-0.5-3-11.3-73.8,23.4-144.3c13-26.4,11-58.3-5.3-83.3l-63.5-97.3    c-18.8-20.8-28.6-47.6-27.5-75.7c1.1-27.1,12.5-52.6,32.1-71.7c19.6-19.1,45.4-29.8,72.6-30.2c28.6-0.4,55.7,10.5,76.1,30.6    c20.4,20.1,31.6,47,31.6,75.7c0,5.4-0.4,10.9-1.2,16.2l-6.7,159.8c-0.9,20.8-8.6,40.9-21.9,56.7C468.2,598,436,649.6,436,737.9    C436.2,740.5,433.9,742.8,431.2,742.8z M387,732.8h39.2c1.2-88.4,34-140.7,53.7-164.2c11.8-14.1,18.8-32.1,19.5-50.7l6.7-160.1    c0-0.2,0-0.4,0.1-0.6c0.8-4.9,1.2-10,1.2-15c0-26-10.2-50.3-28.7-68.5s-43-28.1-69-27.7c-24.6,0.3-47.9,10.1-65.7,27.4    s-28.1,40.4-29.1,65c-1,25.6,7.9,50.1,25.2,68.9c0.2,0.2,0.4,0.4,0.5,0.6l63.6,97.6c18.2,27.9,20.5,63.7,5.9,93.2    C381.4,656.8,385.2,716.6,387,732.8z" style="fill:#383A48;"/>
	</g>
	<path d="M509.5,482.1l-37.3-81c-0.9-2-3.1-3.2-5.4-2.8l-123,20.4c-1.7,0.3-3.1,1.4-3.8,2.9s-0.5,3.3,0.4,4.7l37.5,57.5   c0.9,1.4,2.4,2.2,4.1,2.3l122.8,3.1h0.1c1.7,0,3.2-0.8,4.2-2.2C510.1,485.5,510.3,483.6,509.5,482.1z" style="fill:#383A48;"/>
	<g>
		<path d="M104.9,331.9v405.8h46.6c0,0,0-6.2,0-79.1s18.3-199.1,68.1-244.4L104.9,331.9z" style="fill:#E0719E;"/>
		<path d="M151.5,742.8h-46.6c-2.8,0-5-2.2-5-5V331.9c0-1.9,1-3.6,2.7-4.4c1.7-0.9,3.7-0.7,5.2,0.4l114.7,82.3    c1.2,0.9,2,2.3,2.1,3.8s-0.5,3-1.6,4c-21.4,19.5-39.1,57.3-51.2,109.4c-9.5,41-15.3,90.1-15.3,131.4v79.1    C156.5,740.5,154.3,742.8,151.5,742.8z M109.9,732.8h36.6v-74.1c0-72,17.5-194.1,65.3-243.9l-101.9-73.2L109.9,732.8L109.9,732.8z    " style="fill:#383A48;"/>
	</g>
	<path d="M208.6,432.8c-0.1-1.5-0.8-2.8-2-3.6l-98.7-72.7c-1.5-1.1-3.5-1.3-5.2-0.4s-2.7,2.6-2.7,4.5v52   c0,1.2,0.4,2.3,1.2,3.2l70.3,83c1,1.1,2.4,1.8,3.8,1.8c0.3,0,0.7,0,1-0.1c1.8-0.4,3.2-1.7,3.8-3.5c3.9-13.1,16.4-49.5,27.2-60.2   C208.2,435.7,208.8,434.2,208.6,432.8z" style="fill:#383A48;"/>
	<g>
		<path d="M522.6,443.5h-306c-61.6,0-111.6-50-111.6-111.6V241h417.6c55.9,0,101.3,45.3,101.3,101.3l0,0    C623.8,398.2,578.5,443.5,522.6,443.5z" style="fill:#E0719E;"/>
		<path d="M522.6,448.5h-306c-64.3,0-116.6-52.3-116.6-116.6V241c0-2.8,2.2-5,5-5h417.6c58.6,0,106.3,47.7,106.3,106.3    C628.9,400.9,581.2,448.5,522.6,448.5z M109.9,246v85.9c0,58.8,47.8,106.6,106.6,106.6h306c53.1,0,96.3-43.2,96.3-96.3    s-43.2-96.3-96.3-96.3L109.9,246L109.9,246z" style="fill:#383A48;"/>
	</g>
	<g>
		<path d="M239.1,441.5V122.3l90.1-31.9c6.9-2.5,11.6-9,11.6-16.4v-9.8c0-7.5-4.8-14.1-11.9-16.5L210.3,8.6    C203.2,6.2,195.7,5,188.2,5h-83.3v337.2c0,54.8,44.4,99.3,99.3,99.3H239.1z" style="fill:#E0719E;"/>
		<path d="M239.1,446.5h-34.8c-57.5,0-104.3-46.8-104.3-104.3V5.1c0-2.8,2.2-5,5-5h83.3c8.1,0,16,1.3,23.7,3.8L330.6,43    c9.2,3,15.4,11.6,15.4,21.2V74c0,9.5-6,17.9-14.9,21.1l-86.8,30.7v315.7C244.1,444.3,241.8,446.5,239.1,446.5z M109.9,10.1v332.2    c0,52,42.3,94.3,94.3,94.3H234V122.3c0-2.1,1.3-4,3.3-4.7l90.1-31.9c4.9-1.7,8.2-6.4,8.2-11.7v-9.8c0-5.4-3.4-10.1-8.5-11.7    L208.5,13.4c-6.6-2.2-13.5-3.3-20.5-3.3L109.9,10.1L109.9,10.1z" style="fill:#383A48;"/>
	</g>
	<g>
		<path d="M55,59.7L55,59.7c27.6,0,50-22.4,50-50V5H5.1v4.7C5,37.3,27.4,59.7,55,59.7z" style="fill:#E0719E;"/>
		<path d="M55,64.7C24.7,64.7,0,40,0,9.7V5c0-2.8,2.2-5,5-5h99.9c2.8,0,5,2.2,5,5v4.7C109.9,40,85.3,64.7,55,64.7z     M10,10.1c0.2,24.6,20.3,44.6,45,44.6s44.8-20,45-44.6H10z" style="fill:#383A48;"/>
	</g>
	<g>
		<path d="M447.9,410.6l63.6,97.6c17.2,26.4,19.6,60,5.6,88.3c-34.5,69.9-23,141.3-23,141.3h48.6    c0-88.2,31.3-140.6,52.5-166c12.6-15.1,19.9-34,20.7-53.7l6.7-160.1l0,0c0.8-5.1,1.2-10.4,1.2-15.7c0-56.4-46.1-102-102.7-101.3" style="fill:#E0719E;"/>
		<path d="M542.7,742.8h-48.6c-2.5,0-4.5-1.8-4.9-4.2c-0.5-3-11.3-73.8,23.4-144.3c13-26.4,11-58.3-5.3-83.3l-63.6-97.6    c-1.5-2.3-0.9-5.4,1.5-6.9c2.3-1.5,5.4-0.9,6.9,1.5l63.6,97.6c18.2,27.9,20.5,63.7,5.9,93.2c-28.7,58.1-24.8,118-23.1,134.1h39.2    c1.2-88.4,34-140.7,53.7-164.2c11.8-14.1,18.8-32.1,19.5-50.7l6.7-160.1c0-0.2,0-0.4,0.1-0.6c0.8-4.9,1.2-10,1.2-15    c0-26-10.2-50.3-28.7-68.5s-42.9-28.1-69-27.7c-2.7,0-5-2.2-5.1-4.9c0-2.8,2.2-5,4.9-5.1c28.7-0.4,55.7,10.5,76.1,30.6    c20.4,20.1,31.6,47,31.6,75.7c0,5.4-0.4,10.9-1.2,16.2l-6.7,159.8c-0.9,20.8-8.6,40.9-21.8,56.7c-19.2,22.9-51.4,74.5-51.4,162.8    C547.7,740.5,545.5,742.8,542.7,742.8z" style="fill:#383A48;"/>
	</g>
	<g>
		<path d="M687.8,441.8h-6.9c-31.5,0-57-25.5-57-57v-42.5h6.9c31.5,0,57,25.5,57,57V441.8z" style="fill:#E0719E;"/>
		<path d="M687.8,446.8h-6.9c-34.2,0-62-27.8-62-62v-42.5c0-2.8,2.2-5,5-5h6.9c34.2,0,62,27.8,62,62v42.5    C692.8,444.5,690.6,446.8,687.8,446.8z M628.8,347.3v37.5c0,28.7,23.3,52,52,52h1.9v-37.5c0-28.7-23.3-52-52-52H628.8z" style="fill:#383A48;"/>
	</g>
	<path d="M330.4,43l-19.1-6.3c-1.8-0.6-3.7-0.1-5.1,1.2c-1.3,1.3-1.8,3.3-1.3,5l15.5,50.4c0.4,1.3,1.3,2.4,2.5,3   c0.7,0.4,1.5,0.5,2.2,0.5c0.6,0,1.1-0.1,1.7-0.3l3.9-1.4c8.9-3.2,14.9-11.6,14.9-21.1v-9.8C345.8,54.6,339.6,46.1,330.4,43z" style="fill:#383A48;"/>
	<g>
		<circle cx="199.2" cy="50.5" r="4.5" style="fill:#F6E049;"/>
		<path d="M199.2,60.1c-5.3,0-9.5-4.3-9.5-9.5c0-5.2,4.3-9.5,9.5-9.5c5.3,0,9.5,4.3,9.5,9.5    C208.7,55.8,204.4,60.1,199.2,60.1z M199.2,50.1c-0.3,0-0.5,0.2-0.5,0.5s0.2,0.5,0.5,0.5s0.5-0.2,0.5-0.5    C199.6,50.3,199.4,50.1,199.2,50.1z" style="fill:#383A48;"/>
	</g>
	<g>
		<path d="M203.9,443.5h35.2V122H105.6v223.3C105.6,399.5,149.6,443.5,203.9,443.5z" style="fill:#F3F6E6;"/>
		<path d="M239.1,448.5h-35.2c-56.9,0-103.3-46.3-103.3-103.3V122c0-2.8,2.2-5,5-5h133.5c2.8,0,5,2.2,5,5v321.5    C244.1,446.3,241.8,448.5,239.1,448.5z M110.6,127v218.3c0,51.4,41.8,93.3,93.3,93.3h30.2V127H110.6z" style="fill:#383A48;"/>
	</g>
	<path d="M244,121.1c-0.4-2.4-2.5-4.1-4.9-4.1H105.6c-2.8,0-5,2.2-5,5v52c0,1.7,0.8,3.2,2.2,4.1   c0.8,0.6,1.8,0.9,2.8,0.9c0.6,0,1.2-0.1,1.8-0.3l133.5-52C243.1,125.8,244.4,123.5,244,121.1z" style="fill:#383A48;"/>
	<g>
		<path d="M239.1,414.3v323.5h46.6c0,0,0-6.2,0-79.1c0-61.9,13.2-162.4,47.8-219c11.7-19.2,14.6-42.4,7.5-63.7l-0.1-0.3    " style="fill:#E0719E;"/>
		<path d="M285.7,742.8h-46.6c-2.8,0-5-2.2-5-5V414.3c0-2.8,2.2-5,5-5s5,2.2,5,5v318.5h36.6v-74.1    c0-68.4,15.2-167,48.5-221.6c11.1-18.1,13.6-39.8,7-59.5l-0.1-0.3c-0.9-2.6,0.5-5.5,3.1-6.3c2.6-0.9,5.5,0.5,6.3,3.1l0.1,0.3    c7.5,22.5,4.6,47.3-7.9,67.9c-32.3,53-47,149.3-47,216.4v79.1C290.7,740.5,288.4,742.8,285.7,742.8z" style="fill:#383A48;"/>
	</g>
	<g>
		<path d="M542,702.2h-47.9c-2.8,0-5,2.2-5,5v30.6c0,2.8,2.2,5,5,5H542c2.8,0,5-2.2,5-5v-30.6    C547,704.4,544.8,702.2,542,702.2z" style="fill:#383A48;"/>
		<path d="M430,702.2h-47.9c-2.8,0-5,2.2-5,5v30.6c0,2.8,2.2,5,5,5H430c2.8,0,5-2.2,5-5v-30.6    C435,704.4,432.8,702.2,430,702.2z" style="fill:#383A48;"/>
		<path d="M283.7,702.2H239c-2.8,0-5,2.2-5,5v30.6c0,2.8,2.2,5,5,5h44.7c2.8,0,5-2.2,5-5v-30.6    C288.7,704.4,286.5,702.2,283.7,702.2z" style="fill:#383A48;"/>
		<path d="M150.3,702.2h-44.7c-2.8,0-5,2.2-5,5v30.6c0,2.8,2.2,5,5,5h44.7c2.8,0,5-2.2,5-5v-30.6    C155.3,704.4,153.1,702.2,150.3,702.2z" style="fill:#383A48;"/>
	</g>
	<g>
		<circle cx="493.4" cy="274.4" r="8.4" style="fill:#F3F6E6;"/>
	</g>
	<g>
		<circle cx="544.2" cy="282.8" r="8.4" style="fill:#F3F6E6;"/>
	</g>
	<g>
		<circle cx="563.4" cy="316.6" r="8.4" style="fill:#F3F6E6;"/>
	</g>
	<g>
		<circle cx="510.1" cy="312.1" r="8.4" style="fill:#F3F6E6;"/>
	</g>
</g>

</g>
</g>
</g>

<!-- ITEM 1 -->
<g transform="translate(1006.0 471.0) rotate(0.0 138.5 262.5) scale(0.7434245840042941 0.7430997876857749)">
<g transform="translate(-0.0 -0.0)">
<g clip-path="url(#clipPathId-collage-item-1)">
		<defs>
			<clipPath id="clipPathId-collage-item-1">
				<rect x="0.0" y="0.0" width="372.6" height="706.5"/>
			</clipPath>
		</defs>


<g>
	<g>
		<path d="M186.3,706.5c-2.8,0-5-2.2-5-5V148.7c0-2.8,2.2-5,5-5s5,2.2,5,5v552.7C191.3,704.2,189.1,706.5,186.3,706.5z" style="fill:#383A48;"/>
	</g>
	<g>
		<g>
			<g>
				
					<ellipse transform="matrix(0.8449 -0.5349 0.5349 0.8449 -200.3508 210.1667)" cx="262.3" cy="450.6" rx="83.7" ry="52" style="fill:#7FD6C2;"/>
			</g>
			<g>
				<path d="M231.3,518.4c-20.1,0-35.6-7.2-43.9-20.3c-8.4-13.3-8.1-30.7,0.8-49c8.5-17.6,24-34.1,43.7-46.6      s41.3-19.4,60.8-19.6c0.2,0,0.5,0,0.7,0c20.1,0,35.6,7.2,43.9,20.3c8.4,13.3,8.1,30.7-0.8,49c-8.5,17.6-24,34.1-43.7,46.6      s-41.3,19.4-60.8,19.6C231.8,518.4,231.5,518.4,231.3,518.4z M293.3,392.9c-0.2,0-0.4,0-0.6,0c-17.7,0.2-37.4,6.6-55.5,18      c-18.1,11.5-32.3,26.6-40,42.5c-7.3,15.1-7.8,29.1-1.3,39.3s19.2,15.8,36.1,15.6c17.7-0.2,37.4-6.6,55.5-18      c18.1-11.5,32.3-26.6,40-42.5c7.3-15.1,7.8-29.1,1.3-39.3C322.4,398.4,309.9,392.9,293.3,392.9z" style="fill:#383A48;"/>
			</g>
		</g>
		<g>
			<path d="M191.6,500.4c-1.7,0-3.3-0.8-4.2-2.3c-1.5-2.3-0.8-5.4,1.5-6.9l141.5-89.6c2.3-1.5,5.4-0.8,6.9,1.5     s0.8,5.4-1.5,6.9l-141.5,89.6C193.4,500.2,192.5,500.4,191.6,500.4z" style="fill:#383A48;"/>
		</g>
		<g>
			<path d="M224.1,479.8c-0.3,0-0.5,0-0.8-0.1c-2.7-0.4-4.6-3-4.2-5.7l10.4-68.2c0.4-2.7,3-4.6,5.7-4.2     c2.7,0.4,4.6,3,4.2,5.7L229,475.5C228.6,478.1,226.5,479.8,224.1,479.8z" style="fill:#383A48;"/>
		</g>
		<g>
			<path d="M267.6,452.3c-0.3,0-0.5,0-0.8-0.1c-2.7-0.4-4.6-3-4.2-5.7l8.8-57.7c0.4-2.7,3-4.6,5.7-4.2     c2.7,0.4,4.6,3,4.2,5.7l-8.8,57.7C272.1,450.5,270,452.3,267.6,452.3z" style="fill:#383A48;"/>
		</g>
		<g>
			<path d="M290.1,499.6c-0.5,0-1-0.1-1.4-0.2l-66.1-19.7c-2.6-0.8-4.2-3.6-3.4-6.2c0.8-2.6,3.6-4.1,6.2-3.4l66.1,19.7     c2.6,0.8,4.2,3.6,3.4,6.2C294.3,498.2,292.3,499.6,290.1,499.6z" style="fill:#383A48;"/>
		</g>
		<g>
			<path d="M323.5,469c-0.5,0-1-0.1-1.4-0.2l-56-16.7c-2.6-0.8-4.2-3.6-3.4-6.2c0.8-2.6,3.6-4.2,6.2-3.4l56,16.7     c2.6,0.8,4.2,3.6,3.4,6.2C327.7,467.6,325.7,469,323.5,469z" style="fill:#383A48;"/>
		</g>
	</g>
	<g>
		<g>
			<g>
				
					<ellipse transform="matrix(0.5349 -0.8449 0.8449 0.5349 -329.476 302.7203)" cx="110.2" cy="450.6" rx="52" ry="83.7" style="fill:#7FD6C2;"/>
			</g>
			<g>
				<path d="M141.3,518.4c-0.2,0-0.5,0-0.7,0c-19.5-0.2-41.1-7.1-60.8-19.6s-35.2-29-43.7-46.6      c-8.9-18.4-9.2-35.8-0.8-49c8.3-13.1,23.9-20.3,43.9-20.3c0.2,0,0.5,0,0.7,0c19.5,0.2,41.1,7.1,60.8,19.6s35.2,29,43.7,46.6      c8.9,18.4,9.2,35.8,0.8,49C176.9,511.2,161.4,518.4,141.3,518.4z M79.2,392.9c-16.5,0-29.1,5.5-35.5,15.6      c-6.5,10.2-6,24.2,1.3,39.3c7.7,15.9,21.9,31,40,42.5s37.8,17.9,55.5,18c16.8,0.1,29.6-5.4,36.1-15.6c6.5-10.2,6-24.2-1.3-39.3      c-7.7-15.9-21.9-31-40-42.5s-37.8-17.9-55.5-18C79.7,392.9,79.5,392.9,79.2,392.9z" style="fill:#383A48;"/>
			</g>
		</g>
		<g>
			<path d="M181,500.4c-0.9,0-1.8-0.3-2.7-0.8L36.8,410c-2.3-1.5-3-4.6-1.5-6.9c1.5-2.3,4.6-3,6.9-1.5l141.5,89.6     c2.3,1.5,3,4.6,1.5,6.9C184.3,499.6,182.7,500.4,181,500.4z" style="fill:#383A48;"/>
		</g>
		<g>
			<path d="M148.5,479.8c-2.4,0-4.6-1.8-4.9-4.2l-10.4-68.2c-0.4-2.7,1.5-5.3,4.2-5.7s5.3,1.5,5.7,4.2l10.4,68.2     c0.4,2.7-1.5,5.3-4.2,5.7C149,479.8,148.8,479.8,148.5,479.8z" style="fill:#383A48;"/>
		</g>
		<g>
			<path d="M105,452.3c-2.4,0-4.6-1.8-4.9-4.2l-8.8-57.7c-0.4-2.7,1.5-5.3,4.2-5.7s5.3,1.5,5.7,4.2l8.8,57.7     c0.4,2.7-1.5,5.3-4.2,5.7C105.5,452.3,105.3,452.3,105,452.3z" style="fill:#383A48;"/>
		</g>
		<g>
			<path d="M82.5,499.6c-2.2,0-4.1-1.4-4.8-3.6c-0.8-2.6,0.7-5.4,3.4-6.2l66.1-19.7c2.7-0.8,5.4,0.7,6.2,3.4     c0.8,2.6-0.7,5.4-3.4,6.2l-66.1,19.7C83.4,499.5,82.9,499.6,82.5,499.6z" style="fill:#383A48;"/>
		</g>
		<g>
			<path d="M49.1,469c-2.2,0-4.1-1.4-4.8-3.6c-0.8-2.6,0.7-5.4,3.4-6.2l56-16.7c2.7-0.8,5.4,0.7,6.2,3.4     c0.8,2.6-0.7,5.4-3.4,6.2l-56,16.7C50,468.9,49.5,469,49.1,469z" style="fill:#383A48;"/>
		</g>
	</g>
	<g>
		<path d="M240.4,684.5c-2,0-3.8-1.2-4.6-3.1c-1.1-2.6,0.2-5.5,2.7-6.5l31.5-13c2.6-1.1,5.5,0.2,6.5,2.7    c1.1,2.6-0.2,5.5-2.7,6.5l-31.5,13C241.7,684.4,241.1,684.5,240.4,684.5z" style="fill:#383A48;"/>
	</g>
	<g>
		<path d="M219.4,658.7c-1,0-2-0.3-2.8-0.9c-2.3-1.6-2.8-4.7-1.3-7l19.5-28c1.6-2.3,4.7-2.8,7-1.3    c2.3,1.6,2.8,4.7,1.3,7l-19.5,28C222.5,657.9,221,658.7,219.4,658.7z" style="fill:#383A48;"/>
	</g>
	<g>
		<path d="M131.9,684.5c-0.6,0-1.3-0.1-1.9-0.4l-31.5-13c-2.6-1.1-3.8-4-2.7-6.5s4-3.8,6.5-2.7l31.5,13    c2.6,1.1,3.8,4,2.7,6.5C135.7,683.3,133.8,684.5,131.9,684.5z" style="fill:#383A48;"/>
	</g>
	<g>
		<path d="M152.9,658.7c-1.6,0-3.1-0.8-4.1-2.1l-19.5-28c-1.6-2.3-1-5.4,1.3-7s5.4-1,7,1.3l19.5,28c1.6,2.3,1,5.4-1.3,7    C154.9,658.4,153.9,658.7,152.9,658.7z" style="fill:#383A48;"/>
	</g>
	<g>
		<g>
			<g>
				<g>
					<g>
						<g>
							<path d="M280.6,78.4c-9.7,23.1-94.3,107.9-94.3,107.9s0.9-119.8,10.5-142.9c9.7-23.1,36.2-34,59.3-24.4         C279.3,28.7,290.2,55.3,280.6,78.4z" style="fill:#7FD6C2;"/>
						</g>
						<g>
							<path d="M186.3,191.3c-0.6,0-1.3-0.1-1.9-0.4c-1.9-0.8-3.1-2.6-3.1-4.7c0-4.9,1-121,10.9-144.8         c5.2-12.4,14.9-22.1,27.3-27.2c12.4-5.1,26.1-5.1,38.5,0.1c12.4,5.2,22.1,14.9,27.2,27.3s5.1,26.1-0.1,38.5         c-9.9,23.8-91.8,106-95.3,109.5C188.9,190.8,187.6,191.3,186.3,191.3z M238.7,20.6c-5.2,0-10.4,1-15.3,3         c-10,4.1-17.8,11.8-21.9,21.8c-6.8,16.3-9.4,89.6-10,128.6c27.3-27.9,77.7-81.2,84.5-97.5l0,0c4.2-9.9,4.2-20.9,0.1-30.9         s-11.8-17.8-21.8-21.9C249.2,21.6,244,20.6,238.7,20.6z" style="fill:#383A48;"/>
						</g>
					</g>
					<g>
						<g>
							<path d="M329.2,176.7c-23.2,9.5-142.9,9.6-142.9,9.6s85.3-84.1,108.5-93.6s49.7,1.6,59.2,24.7         C363.5,140.7,352.4,167.2,329.2,176.7z" style="fill:#7FD6C2;"/>
						</g>
						<g>
							<path d="M186.3,191.3c-2,0-3.9-1.2-4.6-3.1c-0.8-1.9-0.3-4,1.1-5.5c3.5-3.5,86.3-84.9,110.1-94.6         c25.7-10.5,55.2,1.8,65.7,27.5s-1.8,55.2-27.5,65.7l0,0C307.3,191.1,191.2,191.3,186.3,191.3L186.3,191.3z M311.9,94.4         c-5.1,0-10.3,1-15.3,3c-16.3,6.7-70,56.7-98,83.9c39-0.4,112.4-2.5,128.7-9.2c20.6-8.5,30.5-32.1,22-52.7         C342.9,103.8,327.8,94.4,311.9,94.4z" style="fill:#383A48;"/>
						</g>
					</g>
					<g>
						<g>
							<path d="M294.2,280.6c-23.1-9.7-107.9-94.3-107.9-94.3s119.8,0.9,142.9,10.5c23.1,9.7,34,36.2,24.4,59.3         S317.3,290.2,294.2,280.6z" style="fill:#7FD6C2;"/>
						</g>
						<g>
							<path d="M311.7,289.1c-6.6,0-13.2-1.3-19.4-3.9l0,0c-23.8-9.9-106-91.8-109.5-95.3c-1.4-1.4-1.9-3.6-1.1-5.5         c0.8-1.9,2.6-3.1,4.6-3.1l0,0c4.9,0,121,1,144.8,10.9c12.4,5.2,22.1,14.9,27.2,27.3s5.1,26.1-0.1,38.5s-14.9,22.1-27.3,27.2         C324.6,287.8,318.1,289.1,311.7,289.1z M198.6,191.5c27.9,27.3,81.2,77.7,97.5,84.5l0,0c9.9,4.2,20.9,4.2,30.9,0.1         s17.8-11.8,21.9-21.8c4.2-9.9,4.2-20.9,0.1-30.9s-11.8-17.8-21.8-21.9C311,194.7,237.6,192.1,198.6,191.5z" style="fill:#383A48;"/>
						</g>
					</g>
					<g>
						<g>
							<path d="M195.9,329.2c-9.5-23.2-9.6-142.9-9.6-142.9s84.1,85.3,93.6,108.5s-1.6,49.7-24.7,59.2         S205.4,352.4,195.9,329.2z" style="fill:#7FD6C2;"/>
						</g>
						<g>
							<path d="M237.9,362.4c-6.6,0-13.2-1.3-19.4-3.9c-12.4-5.2-22.1-14.9-27.2-27.3l0,0c-9.8-23.8-10-139.9-10-144.8         c0-2,1.2-3.9,3.1-4.6c1.9-0.8,4-0.3,5.5,1.1c3.5,3.5,84.9,86.3,94.6,110.1c10.5,25.7-1.8,55.2-27.5,65.7         C250.8,361.1,244.4,362.4,237.9,362.4z M191.4,198.7c0.4,39,2.5,112.4,9.2,128.7l0,0c4.1,10,11.8,17.8,21.8,21.9         c10,4.2,20.9,4.2,30.9,0.1c20.6-8.5,30.5-32.1,22-52.7C268.5,280.4,218.5,226.7,191.4,198.7z" style="fill:#383A48;"/>
						</g>
					</g>
					<g>
						<g>
							<path d="M92,294.2c9.7-23.1,94.3-107.9,94.3-107.9s-0.9,119.8-10.5,142.9c-9.7,23.1-36.2,34-59.3,24.4         C93.3,343.9,82.4,317.3,92,294.2z" style="fill:#7FD6C2;"/>
						</g>
						<g>
							<path d="M133.9,362.1c-6.6,0-13.2-1.3-19.4-3.9c-12.4-5.2-22.1-14.9-27.2-27.3s-5.1-26.1,0.1-38.5         c9.9-23.8,91.8-106,95.3-109.5c1.4-1.4,3.6-1.9,5.5-1.1s3.1,2.6,3.1,4.7c0,4.9-1,121-10.9,144.8         c-5.2,12.4-14.9,22.1-27.3,27.2C146.8,360.8,140.4,362.1,133.9,362.1z M181.1,198.6c-27.3,27.9-77.7,81.2-84.5,97.5l0,0         c-8.6,20.5,1.1,44.2,21.7,52.8c9.9,4.2,20.9,4.2,30.9,0.1c10-4.1,17.8-11.8,21.9-21.8C177.9,311,180.5,237.7,181.1,198.6z" style="fill:#383A48;"/>
						</g>
					</g>
					<g>
						<g>
							<path d="M43.4,195.9c23.2-9.5,142.9-9.6,142.9-9.6S101,270.4,77.8,279.9s-49.7-1.6-59.2-24.7         C9.1,232,20.2,205.5,43.4,195.9z" style="fill:#7FD6C2;"/>
						</g>
						<g>
							<path d="M60.6,288.3c-6.6,0-13.2-1.3-19.4-3.9c-12.4-5.2-22.1-14.9-27.2-27.3c-10.5-25.7,1.8-55.2,27.5-65.7l0,0         c23.8-9.8,139.9-10,144.8-10l0,0c2,0,3.9,1.2,4.6,3.1c0.8,1.9,0.3,4-1.1,5.5c-3.5,3.5-86.3,84.9-110.1,94.6         C73.5,287,67.1,288.3,60.6,288.3z M45.3,200.6c-20.6,8.5-30.5,32.1-22,52.7c4.1,10,11.8,17.8,21.8,21.9         c9.9,4.2,20.9,4.2,30.9,0.1c16.3-6.7,70-56.7,98-83.9C134.9,191.8,61.6,193.9,45.3,200.6L45.3,200.6z" style="fill:#383A48;"/>
						</g>
					</g>
					<g>
						<g>
							<path d="M78.4,92.1c23.1,9.7,107.9,94.3,107.9,94.3s-119.8-0.9-142.9-10.5c-23.1-9.7-34-36.2-24.4-59.3         C28.7,93.3,55.3,82.4,78.4,92.1z" style="fill:#7FD6C2;"/>
						</g>
						<g>
							<path d="M186.3,191.3L186.3,191.3c-5,0-121-1-144.8-10.9c-25.6-10.7-37.8-40.3-27-65.9         c5.2-12.4,14.9-22.1,27.3-27.2c12.4-5.1,26.1-5.1,38.5,0.1l0,0c23.8,9.9,106,91.8,109.5,95.3c1.4,1.4,1.9,3.6,1.1,5.5         C190.1,190.1,188.3,191.3,186.3,191.3z M60.9,93.5c-5.2,0-10.4,1-15.3,3c-10,4.1-17.8,11.8-21.9,21.8         c-8.6,20.5,1.1,44.2,21.7,52.8c16.3,6.8,89.6,9.4,128.6,10c-27.9-27.3-81.2-77.7-97.5-84.5l0,0         C71.5,94.6,66.2,93.5,60.9,93.5z" style="fill:#383A48;"/>
						</g>
					</g>
					<g>
						<g>
							<path d="M176.7,43.4c9.5,23.2,9.6,142.9,9.6,142.9S102.2,101,92.7,77.8c-9.5-23.2,1.6-49.7,24.7-59.2         C140.6,9.1,167.2,20.2,176.7,43.4z" style="fill:#7FD6C2;"/>
						</g>
						<g>
							<path d="M186.3,191.3c-1.3,0-2.6-0.5-3.6-1.5c-3.5-3.5-84.9-86.3-94.6-110.1C83,67.3,83,53.6,88.2,41.2         c5.2-12.4,14.9-22.1,27.3-27.2c12.4-5.1,26.1-5.1,38.5,0.1c12.4,5.2,22.1,14.9,27.2,27.3l0,0c9.8,23.8,10,139.9,10,144.8         c0,2-1.2,3.9-3.1,4.6C187.6,191.2,186.9,191.3,186.3,191.3z M134.7,20.2c-5.2,0-10.4,1-15.3,3c-10,4.1-17.8,11.8-21.9,21.8         s-4.2,20.9-0.1,30.9c6.7,16.3,56.7,70,83.9,98c-0.4-39-2.5-112.4-9.2-128.7c-4.1-10-11.8-17.8-21.8-21.9         C145.2,21.3,140,20.2,134.7,20.2z" style="fill:#383A48;"/>
						</g>
					</g>
				</g>
			</g>
			<g>
				<g>
					<g>
						<path d="M231.7,50.4c0,25.1-45.4,135.9-45.4,135.9S140.9,75.5,140.9,50.4S161.2,5,186.3,5S231.7,25.4,231.7,50.4z        " style="fill:#F3F6E6;"/>
						<path d="M186.3,191.3c-2,0-3.9-1.2-4.6-3.1c-1.9-4.6-45.7-112-45.7-137.8C136,22.6,158.6,0,186.4,0        s50.4,22.6,50.4,50.4c0,25.7-43.9,133.2-45.7,137.8C190.2,190.1,188.3,191.3,186.3,191.3z M186.3,10.1        c-22.3,0-40.4,18.1-40.4,40.4c0,17.6,25.9,86.3,40.4,122.5c14.4-36.3,40.4-104.9,40.4-122.6C226.7,28.2,208.6,10.1,186.3,10.1        z" style="fill:#383A48;"/>
					</g>
					<g>
						<path d="M314.5,122.3c-17.7,17.7-128.2,64-128.2,64s46.3-110.4,64-128.2c17.7-17.7,46.4-17.7,64.2,0        S332.2,104.6,314.5,122.3z" style="fill:#F3F6E6;"/>
						<path d="M186.3,191.3c-1.3,0-2.6-0.5-3.5-1.5c-1.4-1.4-1.9-3.6-1.1-5.5c0.1-0.3,11.8-28,25.4-57.6        c18.5-40.1,31.9-64.4,39.7-72.2c19.6-19.6,51.6-19.6,71.2,0s19.6,51.6,0,71.2c-7.8,7.8-32,21.1-72.2,39.6        c-29.6,13.7-57.3,25.3-57.6,25.4C187.6,191.2,186.9,191.3,186.3,191.3z M282.4,49.9c-10.3,0-20.7,3.9-28.5,11.8        c-12.5,12.5-42.7,79.3-58.1,115.2c35.8-15.4,102.7-45.6,115.2-58.1c15.7-15.7,15.7-41.3,0-57.1        C303.1,53.8,292.7,49.9,282.4,49.9z" style="fill:#383A48;"/>
					</g>
					<g>
						<path d="M322.2,231.7c-25.1,0-135.9-45.4-135.9-45.4s110.8-45.4,135.9-45.4s45.4,20.3,45.4,45.4        S347.2,231.7,322.2,231.7z" style="fill:#F3F6E6;"/>
						<path d="M322.2,236.7c-25.7,0-133.2-43.9-137.8-45.7c-1.9-0.8-3.1-2.6-3.1-4.6s1.2-3.9,3.1-4.6        c4.6-1.9,112-45.7,137.8-45.7c27.8,0,50.4,22.6,50.4,50.4S349.9,236.7,322.2,236.7z M199.7,186.3        c36.2,14.5,104.9,40.4,122.5,40.4c22.3,0,40.4-18.1,40.4-40.4s-18.1-40.4-40.4-40.4C304.5,146,235.9,171.9,199.7,186.3z" style="fill:#383A48;"/>
					</g>
					<g>
						<path d="M250.3,314.5c-17.7-17.7-64-128.2-64-128.2s110.4,46.3,128.2,64s17.7,46.4,0,64.2S268,332.2,250.3,314.5z        " style="fill:#F3F6E6;"/>
						<path d="M282.4,332.7c-12.9,0-25.8-4.9-35.6-14.7c-7.8-7.8-21.1-32-39.7-72.2c-13.7-29.6-25.3-57.3-25.4-57.6        c-0.8-1.9-0.4-4,1.1-5.5c1.4-1.4,3.6-1.9,5.5-1.1c0.3,0.1,28,11.8,57.6,25.4c40.1,18.5,64.4,31.9,72.2,39.6        c19.6,19.6,19.6,51.6,0,71.2C308.2,327.8,295.3,332.7,282.4,332.7z M195.7,195.8c15.4,35.8,45.6,102.7,58.1,115.2        c15.7,15.7,41.3,15.7,57.1,0c15.7-15.7,15.7-41.3,0-57.1C298.4,241.4,231.6,211.2,195.7,195.8z" style="fill:#383A48;"/>
					</g>
					<g>
						<path d="M140.9,322.2c0-25.1,45.4-135.9,45.4-135.9s45.4,110.8,45.4,135.9s-20.3,45.4-45.4,45.4        S140.9,347.3,140.9,322.2z" style="fill:#F3F6E6;"/>
						<path d="M186.3,372.6c-27.8,0-50.4-22.6-50.4-50.4c0-25.7,43.9-133.2,45.7-137.8c0.8-1.9,2.6-3.1,4.6-3.1        s3.9,1.2,4.6,3.1c1.9,4.6,45.7,112,45.7,137.8C236.7,350,214.1,372.6,186.3,372.6z M186.3,199.7        c-14.5,36.2-40.4,104.9-40.4,122.5c0,22.3,18.1,40.4,40.4,40.4s40.4-18.1,40.4-40.4C226.7,304.6,200.7,235.9,186.3,199.7z" style="fill:#383A48;"/>
					</g>
					<g>
						<path d="M58.1,250.3c17.7-17.7,128.2-64,128.2-64s-46.3,110.4-64,128.2s-46.4,17.7-64.2,0S40.4,268,58.1,250.3z" style="fill:#F3F6E6;"/>
						<path d="M90.2,332.7c-12.9,0-25.8-4.9-35.6-14.7c-19.6-19.6-19.6-51.6,0-71.2c7.8-7.8,32-21.1,72.2-39.6        c29.6-13.7,57.3-25.3,57.6-25.4c1.9-0.8,4-0.4,5.5,1.1c1.4,1.4,1.9,3.6,1.1,5.5c-0.1,0.3-11.8,28-25.4,57.6        c-18.5,40.1-31.9,64.4-39.6,72.2C116,327.8,103.1,332.7,90.2,332.7z M176.8,195.8C141,211.2,74.1,241.4,61.7,253.9        C46,269.6,46,295.2,61.7,311c15.7,15.7,41.3,15.7,57.1,0C131.2,298.5,161.4,231.6,176.8,195.8z" style="fill:#383A48;"/>
					</g>
					<g>
						<path d="M50.4,141c25.1,0,135.9,45.4,135.9,45.4S75.5,231.8,50.4,231.8S5,211.5,5,186.4S25.4,141,50.4,141z" style="fill:#F3F6E6;"/>
						<path d="M50.4,236.7C22.6,236.7,0,214.1,0,186.3s22.6-50.4,50.4-50.4c25.7,0,133.2,43.9,137.8,45.7        c1.9,0.8,3.1,2.6,3.1,4.6s-1.2,3.9-3.1,4.6C183.6,192.8,76.2,236.7,50.4,236.7z M50.4,146C28.1,146,10,164.1,10,186.4        s18.1,40.4,40.4,40.4c17.6,0,86.3-25.9,122.5-40.4C136.7,171.9,68,146,50.4,146z" style="fill:#383A48;"/>
					</g>
					<g>
						<path d="M122.3,58.2c17.7,17.7,64,128.2,64,128.2s-110.4-46.3-128.2-64s-17.7-46.4,0-64.2S104.6,40.4,122.3,58.2z        " style="fill:#F3F6E6;"/>
						<path d="M186.3,191.3c-0.7,0-1.3-0.1-1.9-0.4c-0.3-0.1-28-11.8-57.6-25.4c-40.1-18.5-64.4-31.9-72.2-39.6        C35,106.3,35,74.3,54.6,54.7s51.6-19.6,71.2,0c7.8,7.8,21.1,32,39.6,72.2c13.7,29.6,25.3,57.3,25.4,57.6        c0.8,1.9,0.4,4-1.1,5.5C188.9,190.8,187.6,191.3,186.3,191.3z M90.2,49.9c-10.3,0-20.7,3.9-28.5,11.8        C46,77.4,46,103,61.7,118.8c12.5,12.5,79.3,42.7,115.2,58.1c-15.4-35.8-45.6-102.7-58.1-115.2        C110.9,53.8,100.5,49.9,90.2,49.9z" style="fill:#383A48;"/>
					</g>
				</g>
			</g>
		</g>
		<g>
			<g>
				<circle cx="186.3" cy="186.3" r="90.6" style="fill:#F6E049;"/>
				<path d="M186.3,281.9c-52.7,0-95.6-42.9-95.6-95.6s42.9-95.6,95.6-95.6s95.6,42.9,95.6,95.6S239,281.9,186.3,281.9z       M186.3,100.7c-47.2,0-85.6,38.4-85.6,85.6s38.4,85.6,85.6,85.6c47.2,0,85.6-38.4,85.6-85.6S233.5,100.7,186.3,100.7z" style="fill:#383A48;"/>
			</g>
			<g>
				<circle cx="157.3" cy="173.1" r="9.7" style="fill:#383A48;"/>
			</g>
			<g>
				<circle cx="215.3" cy="173.1" r="9.7" style="fill:#383A48;"/>
			</g>
			<g>
				<path d="M186.3,228.4c-14.4,0-27.7-8.5-33.7-21.6c-1.2-2.5,0-5.5,2.5-6.6c2.5-1.2,5.5,0,6.6,2.5      c4.4,9.6,14.1,15.8,24.6,15.8c10.6,0,20.2-6.2,24.6-15.8c1.2-2.5,4.1-3.6,6.6-2.5c2.5,1.2,3.6,4.1,2.5,6.6      C214,219.9,200.7,228.4,186.3,228.4z" style="fill:#383A48;"/>
			</g>
		</g>
	</g>
</g>

</g>
</g>
</g>

<!-- ITEM 2 -->
<g transform="translate(1283.0 710.0) rotate(0.0 89.5 142.0) scale(0.6811263318112633 0.6800766283524904)">
<g transform="translate(-0.0 -0.0)">
<g clip-path="url(#clipPathId-collage-item-2)">
		<defs>
			<clipPath id="clipPathId-collage-item-2">
				<rect x="0.0" y="0.0" width="262.8" height="417.6"/>
			</clipPath>
		</defs>


<g>
	<g>
		<path d="M102.3,417.6c-2.8,0-5-2.2-5-5V102.2c0-2.8,2.2-5,5-5s5,2.2,5,5v310.4C107.3,415.4,105.1,417.6,102.3,417.6z" style="fill:#383A48;"/>
	</g>
	<g>
		<g>
			<circle cx="54.2" cy="54.1" r="49.2" style="fill:#F3F6E6;"/>
			<path d="M54.2,108.3c-14.5,0-28.1-5.6-38.3-15.9c-21.1-21.1-21.1-55.5,0-76.6s55.5-21.1,76.6,0l0,0     c21.1,21.1,21.1,55.5,0,76.6C82.3,102.6,68.7,108.3,54.2,108.3z M54.2,9.9c-11.3,0-22.6,4.3-31.3,12.9C5.7,40,5.7,68.1,22.9,85.3     c8.3,8.3,19.4,12.9,31.3,12.9c11.8,0,22.9-4.6,31.3-12.9c17.2-17.2,17.2-45.3,0-62.5C76.8,14.2,65.5,9.9,54.2,9.9z" style="fill:#383A48;"/>
		</g>
		<g>
			<circle cx="150.4" cy="54.1" r="49.2" style="fill:#F3F6E6;"/>
			<path d="M150.4,108.3c-13.9,0-27.8-5.3-38.3-15.8C91,71.4,91,37,112.1,15.9s55.5-21.1,76.6,0s21.1,55.5,0,76.6l0,0     C178.2,103,164.3,108.3,150.4,108.3z M150.4,9.9c-11.3,0-22.6,4.3-31.3,12.9c-17.2,17.2-17.2,45.3,0,62.5s45.3,17.2,62.5,0     s17.2-45.3,0-62.5C173.1,14.2,161.7,9.9,150.4,9.9z" style="fill:#383A48;"/>
		</g>
		<g>
			<circle cx="150.4" cy="150.3" r="49.2" style="fill:#F3F6E6;"/>
			<path d="M150.4,204.5c-13.9,0-27.8-5.3-38.3-15.8c-21.1-21.1-21.1-55.5,0-76.6s55.5-21.1,76.6,0s21.1,55.5,0,76.6     C178.2,199.2,164.3,204.5,150.4,204.5z M150.4,106.1c-11.3,0-22.6,4.3-31.3,12.9c-17.2,17.2-17.2,45.3,0,62.5s45.3,17.2,62.5,0     s17.2-45.3,0-62.5C173.1,110.4,161.7,106.1,150.4,106.1z" style="fill:#383A48;"/>
		</g>
		<g>
			<circle cx="54.2" cy="150.3" r="49.2" style="fill:#F3F6E6;"/>
			<path d="M54.2,204.5c-14.5,0-28.1-5.6-38.3-15.9C5.7,178.4,0,164.8,0,150.3s5.6-28.1,15.9-38.3     c21.1-21.1,55.5-21.1,76.6,0s21.1,55.5,0,76.6C82.3,198.9,68.7,204.5,54.2,204.5z M54.2,106.1c-11.3,0-22.6,4.3-31.3,12.9     c-8.3,8.3-12.9,19.4-12.9,31.3c0,11.8,4.6,22.9,12.9,31.3c8.3,8.3,19.4,12.9,31.3,12.9c11.8,0,22.9-4.6,31.3-12.9     c17.2-17.2,17.2-45.3,0-62.5C76.8,110.4,65.5,106.1,54.2,106.1z" style="fill:#383A48;"/>
		</g>
		<g>
			<circle cx="102.3" cy="102.2" r="36.1" style="fill:#F6E049;"/>
			<path d="M102.3,143.3c-22.7,0-41.1-18.4-41.1-41.1s18.4-41.1,41.1-41.1s41.1,18.4,41.1,41.1S125,143.3,102.3,143.3z      M102.3,71.1c-17.2,0-31.1,14-31.1,31.1s14,31.1,31.1,31.1s31.1-14,31.1-31.1S119.5,71.1,102.3,71.1z" style="fill:#383A48;"/>
		</g>
	</g>
	<g>
		<path d="M107.3,405.1h-10c0-60.5,35-102.5,104-124.6l3.1,9.5c-28.7,9.2-51.2,22-67.1,38    C117.4,348.1,107.3,374,107.3,405.1z" style="fill:#383A48;"/>
	</g>
	<g>
		<g>
			<path d="M222.4,302.5c-24.3,12.9-60.4,1.8-60.4,1.8s11.1-36.1,35.4-49s60.4-1.8,60.4-1.8S246.7,289.6,222.4,302.5z" style="fill:#7FD6C2;"/>
		</g>
		<g>
			<path d="M193.1,313.7c-17.1,0-31.7-4.4-32.6-4.7c-2.6-0.8-4.1-3.6-3.3-6.2c0.5-1.6,12-38.3,37.8-52     c25.9-13.7,62.7-2.6,64.3-2.2c2.6,0.8,4.1,3.6,3.3,6.2c-0.5,1.6-12,38.3-37.8,52l0,0C214.9,312.1,203.6,313.7,193.1,313.7z      M168.5,300.8c10.4,2.4,34.5,6.3,51.5-2.7l0,0c17.1-9.1,27.3-31.2,31.2-41.1c-10.4-2.4-34.5-6.3-51.5,2.7     C182.6,268.7,172.4,290.9,168.5,300.8z" style="fill:#383A48;"/>
		</g>
	</g>
</g>

</g>
</g>
</g>

              </svg>