<svg width="49" height="43" viewBox="0 0 49 43" fill="none" xmlns="http://www.w3.org/2000/svg">
<path d="M2.90625 0.25C1.61536 0.25 0.5625 1.30286 0.5625 2.59375V33.0625C0.5625 34.7867 1.96326 36.1875 3.6875 36.1875H20.875V41.6562C20.875 42.0865 21.226 42.4375 21.6562 42.4375H26.3438C26.774 42.4375 27.125 42.0865 27.125 41.6562V36.1875H45.875C47.5992 36.1875 49 34.7867 49 33.0625V10.4062C49 9.11536 47.9471 8.0625 46.6562 8.0625H44.3125V7.28125C44.3125 5.99036 43.2596 4.9375 41.9688 4.9375H22.2086C21.5861 4.9375 21.0032 4.69641 20.5607 4.26001L17.6523 1.37915C16.9138 0.649781 15.9373 0.25 14.9027 0.25H2.90625ZM2.90625 1.8125H14.9027C15.5253 1.8125 16.1082 2.05359 16.5507 2.48999L19.459 5.37085C20.1975 6.10022 21.1741 6.5 22.2086 6.5H41.9688C42.399 6.5 42.75 6.85095 42.75 7.28125V26.8125H29.4688C29.0385 26.8125 28.6875 27.1604 28.6875 27.5938C28.6875 28.0271 29.0385 28.375 29.4688 28.375H42.75V33.0625C42.75 33.5447 42.9239 34.1093 43.2444 34.625H27.125V22.4485L28.9164 24.2399C29.2216 24.545 29.7159 24.545 30.0211 24.2399L33.1461 21.1149C33.2987 20.9623 33.375 20.7639 33.375 20.5625C33.375 20.3611 33.2987 20.1627 33.1461 20.0101L24.5524 11.4164C24.2472 11.1112 23.7528 11.1112 23.4476 11.4164L14.8539 20.0101C14.5487 20.3153 14.5487 20.8097 14.8539 21.1149L17.9789 24.2399C18.2841 24.545 18.7784 24.545 19.0836 24.2399L20.875 22.4485V34.625H3.6875C2.8269 34.625 2.125 33.9231 2.125 33.0625V28.375H18.5312C18.9615 28.375 19.3125 28.0271 19.3125 27.5938C19.3125 27.1604 18.9615 26.8125 18.5312 26.8125H2.125V2.59375C2.125 2.16345 2.47595 1.8125 2.90625 1.8125ZM44.3125 9.625H46.6562C47.0865 9.625 47.4375 9.97595 47.4375 10.4062V33.0625C47.4375 33.9231 46.7356 34.625 45.875 34.625C44.9015 34.625 44.3125 33.5386 44.3125 33.0625V9.625ZM24 13.0735L31.489 20.5625L29.4688 22.5828L26.8961 20.0101C26.6733 19.7874 26.3376 19.7202 26.0447 19.8423C25.7548 19.9613 25.5625 20.2482 25.5625 20.5625V40.875H22.4375V20.5625C22.4375 20.2482 22.2452 19.9613 21.9553 19.8423C21.6624 19.7202 21.3267 19.7874 21.1039 20.0101L18.5312 22.5828L16.511 20.5625L24 13.0735ZM3.6875 29.9375C3.2572 29.9375 2.90625 30.2854 2.90625 30.7188V32.2812C2.90625 32.7146 3.2572 33.0625 3.6875 33.0625C4.1178 33.0625 4.46875 32.7146 4.46875 32.2812V30.7188C4.46875 30.2854 4.1178 29.9375 3.6875 29.9375ZM7.59375 29.9375C7.16345 29.9375 6.8125 30.2854 6.8125 30.7188V32.2812C6.8125 32.7146 7.16345 33.0625 7.59375 33.0625C8.02405 33.0625 8.375 32.7146 8.375 32.2812V30.7188C8.375 30.2854 8.02405 29.9375 7.59375 29.9375ZM11.5 29.9375C11.0697 29.9375 10.7188 30.2854 10.7188 30.7188V32.2812C10.7188 32.7146 11.0697 33.0625 11.5 33.0625C11.9303 33.0625 12.2812 32.7146 12.2812 32.2812V30.7188C12.2812 30.2854 11.9303 29.9375 11.5 29.9375ZM15.4062 29.9375C14.976 29.9375 14.625 30.2854 14.625 30.7188V32.2812C14.625 32.7146 14.976 33.0625 15.4062 33.0625C15.8365 33.0625 16.1875 32.7146 16.1875 32.2812V30.7188C16.1875 30.2854 15.8365 29.9375 15.4062 29.9375ZM19.3125 29.9375C18.8822 29.9375 18.5312 30.2854 18.5312 30.7188V32.2812C18.5312 32.7146 18.8822 33.0625 19.3125 33.0625C19.7428 33.0625 20.0938 32.7146 20.0938 32.2812V30.7188C20.0938 30.2854 19.7428 29.9375 19.3125 29.9375ZM28.6875 29.9375C28.2572 29.9375 27.9062 30.2854 27.9062 30.7188V32.2812C27.9062 32.7146 28.2572 33.0625 28.6875 33.0625C29.1178 33.0625 29.4688 32.7146 29.4688 32.2812V30.7188C29.4688 30.2854 29.1178 29.9375 28.6875 29.9375ZM32.5938 29.9375C32.1635 29.9375 31.8125 30.2854 31.8125 30.7188V32.2812C31.8125 32.7146 32.1635 33.0625 32.5938 33.0625C33.024 33.0625 33.375 32.7146 33.375 32.2812V30.7188C33.375 30.2854 33.024 29.9375 32.5938 29.9375ZM36.5 29.9375C36.0697 29.9375 35.7188 30.2854 35.7188 30.7188V32.2812C35.7188 32.7146 36.0697 33.0625 36.5 33.0625C36.9303 33.0625 37.2812 32.7146 37.2812 32.2812V30.7188C37.2812 30.2854 36.9303 29.9375 36.5 29.9375ZM40.4062 29.9375C39.976 29.9375 39.625 30.2854 39.625 30.7188V32.2812C39.625 32.7146 39.976 33.0625 40.4062 33.0625C40.8365 33.0625 41.1875 32.7146 41.1875 32.2812V30.7188C41.1875 30.2854 40.8365 29.9375 40.4062 29.9375Z" fill="white"/>
</svg>
