<svg xmlns="http://www.w3.org/2000/svg" width="26" height="22" fill="none" viewBox="0 0 26 22"><path fill="#fff" d="M2 0C0.895 0 0 0.895 0 2V5H11H14.3926C14.1456 4.039 14 3.038 14 2H9.19922L8.58203 0.970703C8.22103 0.368703 7.57019 0 6.86719 0H2ZM16 2C16 7.51133 20.4887 12 26 12V10C21.5693 10 18 6.43067 18 2H16ZM20 2C20 5.30163 22.6984 8 26 8V6C23.7796 6 22 4.22037 22 2H20ZM24 2C24 3.105 24.895 4 26 4V2H24ZM1 7C0.448 7 0 7.448 0 8V20C0 21.105 0.895 22 2 22H24C25.105 22 26 21.105 26 20V14C21.159 14 16.9986 11.128 15.1016 7H1ZM13 11C13.256 11 13.512 11.098 13.707 11.293L16.707 14.293C17.098 14.684 17.098 15.316 16.707 15.707C16.316 16.098 15.684 16.098 15.293 15.707L14 14.4141V19C14 19.552 13.553 20 13 20C12.447 20 12 19.552 12 19V14.4141L10.707 15.707C10.316 16.098 9.68397 16.098 9.29297 15.707C8.90197 15.316 8.90197 14.684 9.29297 14.293L12.293 11.293C12.488 11.098 12.744 11 13 11Z"/></svg>