<svg fill="#000000" xmlns="http://www.w3.org/2000/svg"  viewBox="0 0 128 128" width="128px" height="128px"><path d="M 83.949219 0.84960938 C 75.924219 0.84960938 67.900781 3.9 61.800781 10 L 61.5 10.300781 C 49.3 22.500781 49.3 42.399609 61.5 54.599609 L 77.900391 70.900391 C 79.600391 72.600391 81.8 73.400391 84 73.400391 C 86.2 73.400391 88.399609 72.600391 90.099609 70.900391 L 106.40039 54.599609 C 118.60039 42.399609 118.60039 22.500781 106.40039 10.300781 L 106.09961 10 C 99.999609 3.9 91.974219 0.84960938 83.949219 0.84960938 z M 84 6.9003906 C 90.5 6.9003906 97.000391 9.4007812 101.90039 14.300781 L 102.19922 14.599609 C 112.09922 24.499609 112.09922 40.500391 102.19922 50.400391 L 85.900391 66.699219 C 84.900391 67.699219 83.199609 67.699219 82.099609 66.699219 L 65.800781 50.400391 C 56.000781 40.500391 56.000781 24.399609 65.800781 14.599609 L 66.099609 14.300781 C 70.999609 9.4007813 77.5 6.9003906 84 6.9003906 z M 84 19 C 82.3 19 81 20.3 81 22 L 81 37 C 81 38.7 82.3 40 84 40 C 85.7 40 87 38.7 87 37 L 87 22 C 87 20.3 85.7 19 84 19 z M 14 21 C 6.8 21 1 26.8 1 34 L 1 114 C 1 121.2 6.8 127 14 127 L 94 127 C 101.2 127 107 121.2 107 114 L 107 72.5 C 107 70.8 105.7 69.5 104 69.5 C 102.3 69.5 101 70.8 101 72.5 L 101 81 L 44 81 L 44 24 C 44 22.3 42.7 21 41 21 L 14 21 z M 14 27 L 38 27 L 38 46 L 7 46 L 7 34 C 7 30.1 10.1 27 14 27 z M 84 44 C 82.3 44 81 45.3 81 47 L 81 49 C 81 50.7 82.3 52 84 52 C 85.7 52 87 50.7 87 49 L 87 47 C 87 45.3 85.7 44 84 44 z M 7 52 L 38 52 L 38 81 L 7 81 L 7 52 z M 7 87 L 20 87 L 20 121 L 14 121 C 10.1 121 7 117.9 7 114 L 7 87 z M 26 87 L 38 87 L 38 121 L 26 121 L 26 87 z M 44 87 L 52.800781 87 L 86.800781 121 L 44 121 L 44 87 z M 61.199219 87 L 101 87 L 101 114 C 101 117.5 98.499609 120.40039 95.099609 120.90039 L 61.199219 87 z"/></svg>